<?xml version="1.0" encoding="utf-8"?>
<!-- Generator: Adobe Illustrator 24.1.1, SVG Export Plug-In . SVG Version: 6.00 Build 0)  -->
<svg version="1.1" id="Layer_1" xmlns="http://www.w3.org/2000/svg" xmlns:xlink="http://www.w3.org/1999/xlink" x="0px" y="0px"
	 viewBox="0 0 122.7 85" style="enable-background:new 0 0 122.7 85;" xml:space="preserve">
<style type="text/css">
	.st0{fill:#FFFFFF;}
	.st1{opacity:0.65;fill:#FFFFFF;enable-background:new    ;}
</style>
<path class="st0" d="M94.4,43.9c0,2.2,0,4.4,0,6.6c0,2.6,0,2.6,2.6,2.6c3.7-0.1,7.5-0.2,11.2-0.3c0.9,0,1.8,0,2.6,0s1.6,0.3,1.6,1.4
	c0,3.4,0.1,6.8-0.1,10.1c-0.1,2.1-0.6,2.2-2.8,2.2c-4,0-8.1,0-12.1,0c-3,0-2.8-0.2-2.8,3c0,3.7,0.1,7.4,0.1,11c0,2.8-0.4,3.3-3,4
	c-3.3,0.9-6.7,0.3-10-0.2c-1.2-0.2-1.4-1.2-1.4-2.3c0-3.8,0.1-7.6,0-11.4s0.6-3.5-3.5-3.5C73,67,69.1,67,65.2,67
	c-1.8-0.1-2.2-0.2-2.3-2c-0.3-3.5-0.3-6.9-0.3-10.4c0-1.7,0.5-1.9,2.4-1.9c3.7-0.1,7.5,0,11.2,0c0.7,0,1.4,0,2.1,0
	c1.9-0.1,2-0.1,2-1.9c0.1-3.9,0.1-7.8,0.1-11.7c0-4.6,0.6-5.3,5.3-5.4c2.2,0.1,4.3,0.2,6.5,0.6c1.8,0.3,1.9,0.5,2,2.3
	c0.1,1.3,0,2.6,0,3.9L94.4,43.9L94.4,43.9z"/>
<path class="st0" d="M49.5,17.9c0-3.5,0-3.9,0-7.4c0-0.6,0-0.6,0.6-0.6c2.8,0,5.7,0,8.5,0c0.4,0,0.6,0.1,0.6,0.6
	c0,7.3,0,11.1,0,18.4c0,0.4-0.1,0.5-0.5,0.5c-2.9,0-5.7,0-8.6,0c-0.5,0-0.6-0.1-0.5-0.6C49.5,25.2,49.5,21.5,49.5,17.9z"/>
<path class="st0" d="M75.1,82c0-1.3,0-2.6,0-3.8c0-1.2,0-2.4,0-3.5c-0.4,0.6-1,1.1-1.9,1.4c-0.4,0.1-0.8,0.1-1.2,0.1H13.9
	c-2.3,0-3.6-1.4-3.6-3.6c0-10.7,0-15.8,0-26.5c0-2.2,1.4-3.5,3.5-3.5h58.4c1.1,0,2.1,0.4,2.8,1.4c0.1,0.2,0.3,0.4,0.4,0.6
	c0-1.8,0-3.6,0-5.4c0-7.4,2.8-10.4,10-10.6c0-2.8,0-5.6,0-8.5c0-2.3-0.6-4.3-2.1-6c-2.2-2.7-4.7-5.2-7.2-7.7
	c-1.8-1.8-3.6-3.4-5.7-4.9c-0.9-0.6-1.9-1-3-1.2C67.2,0.1,67.1,0,67,0C47.8,0,28.4,0,9.2,0C8.8,0.1,8.3,0.2,7.9,0.3
	C4,1.4,1.6,4,0.5,7.7C0.3,8.4,0.3,9.1,0.3,9.8c0,21.6,0,43.4,0,65c0,4.6,2.9,8.3,7.1,9.6c0.6,0.1,1.1,0.3,1.8,0.4
	c22.1,0,44.2,0,66.3,0C75.3,84,75.1,83.1,75.1,82z M16.8,10.1c0-1.8,0.8-3,2.4-3.4c0.4-0.1,0.8-0.1,1.2-0.1c13.9,0,27.9,0,41.8,0
	c2.4,0,3.6,1.7,3.6,3.6c0,7.4,0,11.6,0,18.9c0,1.8-0.9,3-2.6,3.4c-0.4,0.1-0.7,0.1-1.1,0.1H20.4c-1.8,0-3-0.8-3.4-2.3
	c-0.1-0.3-0.2-0.8-0.2-1.2C16.8,21.6,16.8,17.6,16.8,10.1z"/>
<path class="st1" d="M122.3,36.8c0-0.7-0.5-0.9-1-0.9s-1.1,0-1.7,0c-2.4,0-4.7,0.1-7.1,0.2c-1.7,0-1.7,0-1.7-1.6c0-1.4,0-2.8,0-4.1
	v-2.2c0-0.8,0-1.6,0-2.4c0-1.1-0.1-1.3-1.3-1.4c-1.4-0.3-2.7-0.3-4.1-0.4c-2.9,0-3.3,0.5-3.3,3.4c0,2.4,0,4.9-0.1,7.3
	c0,1.2,0,1.2-1.3,1.2c-0.4,0-0.9,0-1.3,0c-1.1,0-0.3,0-1.4,0c0,0.3,0,0.6,0,0.9l0.1,3.7c0,0,0,2.4,0,4.5c1.2,0,0.5,0,1.7,0
	c2.5,0,2.1-0.2,2.2,2.2c0,0.3,0,2.3,0,2.6c0.3,0,0.6,0,0.9,0c2.1-0.1,4.1-0.1,6.2-0.2h1.9c0-0.5,0-2.7,0-3.2c0-2-0.1-1.9,1.7-1.9
	c2.5,0,5.1,0,7.6,0c1.4,0,1.7-0.1,1.7-1.4C122.4,41.1,122.3,39,122.3,36.8z"/>
</svg>
