<?xml version="1.0" encoding="utf-8"?>
<!-- Generator: Adobe Illustrator 24.1.1, SVG Export Plug-In . SVG Version: 6.00 Build 0)  -->
<svg version="1.1" id="Layer_1" xmlns="http://www.w3.org/2000/svg" xmlns:xlink="http://www.w3.org/1999/xlink" x="0px" y="0px"
	 viewBox="0 0 85.1 85" style="enable-background:new 0 0 85.1 85;" xml:space="preserve">
<style type="text/css">
	.st0{fill:#FFFFFF;}
</style>
<g>
	<g>
		<path class="st0" d="M71.7,77.1c0-23.1,0-46,0-69c-0.9,0-1.6,0-2.4,0c-1.7,0-2.9-1.2-2.9-2.8s1.1-2.8,2.8-2.8
			c3.6,0,7.2-0.1,10.8,0c1.7,0,2.7,1.2,2.7,2.8S81.6,8,79.9,8.1c-0.9,0-1.7,0-2.6,0c0,23.1,0,46,0,69c0.9,0,1.7,0,2.6,0
			c1.7,0.1,2.8,1.2,2.8,2.8s-1,2.8-2.7,2.9c-3.6,0.1-7.3,0-10.9,0c-1.6,0-2.6-1.2-2.6-2.8s1.1-2.8,2.7-2.9
			C70,77,70.8,77.1,71.7,77.1z"/>
		<path class="st0" d="M71.7,77.1c-0.9,0-1.7,0-2.6,0c-1.6,0.1-2.7,1.2-2.7,2.9c0,1.6,1,2.7,2.6,2.8c3.6,0.1,7.3,0.1,10.9,0
			c1.7,0,2.7-1.2,2.7-2.9c0-1.6-1.1-2.7-2.8-2.8c-0.9,0-1.6,0-2.6,0c0-23,0-45.8,0-69c0.9,0,1.7,0,2.6,0c1.7-0.1,2.8-1.2,2.8-2.8
			c0-1.7-1-2.8-2.7-2.8c-3.6,0-7.2,0-10.8,0c-1.7,0-2.8,1.2-2.8,2.8c0,1.7,1.2,2.8,2.9,2.8c0.8,0,1.5,0,2.4,0
			C71.7,31.1,71.7,53.9,71.7,77.1z"/>
	</g>
</g>
<g>
	<path class="st0" d="M12.8,61.4c1,1,1.4,2.3,1.4,4.1c0,1.9-0.5,3.3-1.6,4.4c-1,1.1-2.5,1.6-4.3,1.6S5.1,71,4.2,70
		c-1-1-1.4-2.4-1.4-4.2c0-1.8,0.5-3.2,1.6-4.3s2.5-1.6,4.4-1.6C10.6,59.9,11.9,60.4,12.8,61.4z"/>
	<path class="st0" d="M31.6,61.4c1,1,1.4,2.3,1.4,4.1c0,1.9-0.5,3.3-1.6,4.4c-1,1.1-2.5,1.6-4.3,1.6S23.9,71,23,70
		c-1-1-1.4-2.4-1.4-4.2c0-1.8,0.5-3.2,1.6-4.3s2.5-1.6,4.4-1.6C29.3,59.9,30.6,60.4,31.6,61.4z"/>
	<path class="st0" d="M50.3,61.4c1,1,1.4,2.3,1.4,4.1c0,1.9-0.5,3.3-1.6,4.4c-1,1.1-2.5,1.6-4.3,1.6S42.6,71,41.7,70
		c-1-1-1.4-2.4-1.4-4.2c0-1.8,0.5-3.2,1.6-4.3s2.5-1.6,4.4-1.6C48,59.9,49.4,60.4,50.3,61.4z"/>
</g>
</svg>
