<?xml version="1.0" encoding="utf-8"?>
<!-- Generator: Adobe Illustrator 24.1.1, SVG Export Plug-In . SVG Version: 6.00 Build 0)  -->
<svg version="1.1" id="Layer_1" xmlns="http://www.w3.org/2000/svg" xmlns:xlink="http://www.w3.org/1999/xlink" x="0px" y="0px"
	 viewBox="0 0 85.1 85" style="enable-background:new 0 0 85.1 85;" xml:space="preserve">
<style type="text/css">
	.st0{fill:#FFFFFF;}
</style>
<g>
	<g>
		<path class="st0" d="M75.3,45.5c1.3,0,2.2-0.4,2.9-1.3c0.6-1,0.7-2,0.1-3c-0.6-1.1-1.4-1.5-2.6-1.5H28c-0.6,0-0.9-0.1-1.1-0.7
			c-1.6-4.5-6.4-7.5-11-6.9c-5.1,0.6-9,4.3-9.6,9.3C5.6,46.7,9.2,51.8,14.4,53c5.3,1.3,10.7-1.6,12.5-6.7c0.2-0.5,0.4-0.7,1-0.7
			L75.3,45.5z M21.5,42.5c0,2.6-2.1,4.7-4.7,4.7c-2.6,0-4.7-2.1-4.7-4.7s2.1-4.7,4.7-4.7C19.5,37.8,21.6,39.8,21.5,42.5z"/>
		<path class="st0" d="M54.6,68.9c-0.4,0-0.7-0.1-0.8-0.6c-1.5-4.3-5.6-7.1-10-7.2c-4.5,0-8.6,2.9-10.1,7.2
			c-0.2,0.4-0.4,0.6-0.8,0.6c-6.9,0-13.9,0-20.7,0c-1.6,0-2.7,0.8-3.1,2c-0.6,1.6,0.5,3.5,2.2,3.9c0.4,0.1,0.8,0.1,1.2,0.1
			c6.8,0,13.7,0,20.5,0c0.5,0,0.7,0.2,0.9,0.6c1.5,4.3,5.6,7.1,10.1,7.1s8.5-2.9,10-7.1c0.2-0.5,0.4-0.6,0.9-0.6
			c6.9,0,13.9,0,20.7,0c1.9,0,3.3-1.3,3.3-3.1c0-1.6-1.3-2.9-3.1-2.9H54.6z M48.4,71.9c0,2.6-2,4.7-4.7,4.7c-2.6,0-4.7-2.1-4.7-4.7
			c0-2.6,2.1-4.7,4.7-4.7C46.4,67.2,48.4,69.3,48.4,71.9z"/>
		<path class="st0" d="M44.7,16.1c0.4,0,0.6,0.1,0.7,0.5c1.5,4.4,5.6,7.2,10.1,7.2s8.6-2.9,10.1-7.2c0.2-0.4,0.4-0.5,0.8-0.5
			c3.1,0,6.2,0,9.3,0c1.3,0,2.2-0.6,2.8-1.7c0.5-1.1,0.4-2.1-0.4-3.1c-0.7-0.9-1.5-1.2-2.5-1.2c-3,0-6.1,0-9.1,0
			c-0.5,0-0.7-0.1-0.9-0.6C64,5.2,60,2.4,55.4,2.4c-4.4,0-8.4,2.9-9.9,7.1c-0.2,0.5-0.4,0.6-0.9,0.6H12c-1.7,0-3.1,1.3-3.1,3
			s1.3,3,3.1,3H44.7z M55.5,8.4c2.6,0,4.7,2.1,4.7,4.7s-2.1,4.7-4.7,4.7c-2.6,0-4.7-2.1-4.7-4.7C50.8,10.4,52.9,8.4,55.5,8.4z"/>
	</g>
</g>
</svg>
