<?xml version="1.0" encoding="utf-8"?>
<!-- Generator: Adobe Illustrator 24.1.1, SVG Export Plug-In . SVG Version: 6.00 Build 0)  -->
<svg version="1.1" id="Layer_1" xmlns="http://www.w3.org/2000/svg" xmlns:xlink="http://www.w3.org/1999/xlink" x="0px" y="0px"
	 viewBox="0 0 1080 135" style="enable-background:new 0 0 1080 135;" xml:space="preserve">
<style type="text/css">
	.st0{opacity:0.1;}
	.st1{fill:none;}
	.st2{fill:#FFFFFF;}
</style>
<g class="st0">
	<path class="st1" d="M43.3,123.3c0.9,4,2.2,7.9,3.9,11.7h7.5c-1.9-2.3-4-4.6-6.3-6.8C46.7,126.5,45,124.9,43.3,123.3z"/>
	<path class="st1" d="M29,112.8c4.4,6.3,9,12.5,13.5,18.6c-1.3-3.6-2.2-7.3-2.9-11.1C36.2,117.5,32.6,115,29,112.8z"/>
	<path class="st1" d="M0,76v21c5,1.6,9.9,3.3,14.8,5.3C9.6,93.6,4.5,84.8,0,76z"/>
	<path class="st1" d="M14.7,14.5c2.5,14.1,16,23.6,30.2,21c17-3,28.5-18.7,26.6-35.6h-21c0.4,1.1,0.7,2.2,1,3.4
		c1.4,7.6-3.7,14.8-11.3,16.2c-5.5,1-10.9-2.3-12.5-7.5c-0.3,0.2-0.7-0.2-0.7-0.2s-5.3-5.2,2.4-8.4c0,0-1.4,2.1-0.3,4.7
		c1,2.6-1.3,3.8-1.3,3.8c0,0-0.1,0.1-0.1,0.1c1.7,4.9,7,8,12.3,7c7.2-1.3,12.2-7.9,10.9-15.2c-0.2-1.4-0.7-2.6-1.2-3.9H17.4
		C14.9,4.2,13.7,9.3,14.7,14.5z"/>
	<path class="st1" d="M1068.5,124.9c3.4-4.2,7.3-7.9,11.5-11.2V50.1c-6.7,18.2-11.5,38.4-15.3,58.9
		C1066.3,114.1,1067.6,119.4,1068.5,124.9z"/>
	<path class="st1" d="M1017.2,14.8c0.5-4.9,3-9.5,7.3-12.5c6.2-4.2,14.7-2.6,18.9,3.7c3.4,5,2.1,11.8-2.9,15.1
		c-4,2.7-9.4,1.6-12.1-2.4c-2.2-3.2-1.3-7.5,1.8-9.7l0.1,0.1c-3,2-3.7,6-1.7,9c2.5,3.7,7.5,4.7,11.2,2.2c4.6-3.1,5.8-9.4,2.7-14.1
		c-3.9-5.8-11.8-7.3-17.6-3.4c-5.7,3.9-8.1,10.9-6.3,17.3c7.8,23.8,29.7,47.8,42.2,78.2c5-20.5,11.2-40.5,19.1-58.1V0h-64
		C1015.6,5,1016,9.9,1017.2,14.8z M1034.2,47c0,0.1-0.1,0.1-0.1,0.1c0,0,0,0,0,0c0,0,0,0,0,0c0,0,0,0,0,0c0,0-0.1,0-0.1,0
		c0,0-0.1,0-0.1,0c0,0,0,0-0.1,0c0,0-0.1,0-0.1,0c0,0,0,0,0,0c0,0,0,0,0,0c-0.2-0.1-0.4-0.2-0.4-0.2s-7.1-5,1.3-10
		c0,0-1.2,2.7,0.5,5.4C1036.6,45.2,1034.2,47,1034.2,47z"/>
	<path class="st1" d="M1028.9,45.2c-3.2-3.7-8.4-5.3-13.2-3.5c-4.9,1.8-7.4,7.3-5.6,12.3c1.5,4,5.9,6,9.8,4.5
		c3.2-1.2,4.8-4.7,3.6-7.9c-0.9-2.5-3.8-3.8-6.3-2.9l0-0.1c2.7-1,5.7,0.4,6.8,3.1c1.3,3.4-0.5,7.2-3.9,8.5c-4.2,1.6-9-0.6-10.6-4.9
		c-2-5.3,0.7-11.2,6-13.2c4.2-1.6,8.7-0.8,12,1.7c-8.2-14.6-14-28.5-12.4-42.8H73c1.6,17.4-10.4,33.4-27.9,36.6
		c-14.8,2.6-28.9-7.2-31.6-22C12.6,9.4,13.6,4.3,16.1,0H0v66.4c7.2,13.7,15.8,27.4,25,40.7c4.8,2.5,9.4,5.3,13.9,8.6
		c-2.2-21.8,6-44.3,24.2-59.3c23.2-19.2,58.5-18.4,79.2,6.5c15.4,18.6,12.6,46.9-6,62.2c-14.9,12.3-37.4,10-49.7-4.9
		c-9.8-11.9-8.1-29.5,3.8-39.3c6.3-5.2,14.6-6.4,21.8-3.8l0.5,0.2c-6.9-2.7-15.3-1.4-21.5,3.4c-11.8,9.2-14,26.2-4.8,38
		c11.4,14.8,32.7,17.5,47.5,6.1c18.5-14.3,21.9-40.9,7.6-59.4C126,45.5,99.1,39.7,77.2,49.9c4-0.1,8.1,1,11.7,3.4
		c7.3,4.9,9.3,14.9,4.4,22.2C89.3,81.4,81.3,83,75.4,79c-4.7-3.2-5.9-9.5-2.8-14.2c1.4-2,3.5-3.3,5.7-3.5c0,0,0,0,0.1-0.1
		c0,0,0,0,0,0c0,0,0,0,0,0c0.2-0.2,0.4-0.3,0.4-0.3s8.6-4,8.8,6.6c0,0-1.9-2.5-5.4-2.5c-3.5,0.1-3.9-3.2-3.9-3.2
		c0-0.1,0-0.1-0.1-0.2c0,0,0,0,0,0c0,0,0,0,0,0c-1.9,0.5-3.7,1.6-4.8,3.3C70.6,69.2,71.7,75,76,77.9c5.3,3.6,12.6,2.2,16.2-3.2
		c4.5-6.7,2.7-15.7-4-20.2c-4.7-3.1-10.3-3.8-15.3-2.3c-2,1.1-3.9,2.4-5.7,3.9c-19.6,15.2-28.3,39.2-24.9,62.2
		c2.7,2.1,5.3,4.4,7.9,6.9c3.4,3.3,6.5,6.6,9.3,10h850.4c-2.6-17.8,3.2-36.6,17.1-49.6c11.5-10.8,25.2-16.8,39.2-18.5
		c-7.1-2.8-12-9.8-11.7-17.9c0.2-8.3,7.1-14.7,15.4-14.5c6.6,0.2,11.8,5.7,11.6,12.3c-0.2,5.3-4.6,9.4-9.9,9.3
		c-2.4-0.1-4.5-1.3-5.9-3c0,0-0.1,0-0.1,0c0,0,0,0,0,0c0,0,0,0,0,0c-0.2-0.1-0.4-0.2-0.4-0.2s-7.1-5,1.3-10c0,0-1.2,2.7,0.5,5.5
		c1.7,2.8-0.8,4.6-0.8,4.6c0,0.1-0.1,0.1-0.1,0.1c0,0,0,0,0,0c0,0,0,0,0,0c0,0,0,0,0,0c1.3,1.4,3.2,2.3,5.3,2.4
		c4.8,0.1,8.8-3.6,9-8.4c0.2-6-4.5-11-10.6-11.2c-7.5-0.2-13.8,5.7-14,13.2c-0.3,9.3,7,17.1,16.3,17.5c20.9-0.9,41.9,7.6,56.9,23.6
		c12.2,13,19.6,28.7,22.3,45.1h1.8c2.1-10.5,4.3-21.3,6.8-31.9C1052,81.3,1038.9,62.6,1028.9,45.2z M1011.2,10.8
		c5.5,1.7,4.1,5.2,4.1,5.2C1010.5,14.8,1011.2,10.8,1011.2,10.8z M112.2,75.2c0,0,13-6.2,16.1,19.4c0,0-2.3-3.3-12.5-6.6
		c-10.2-3.3-6.1-10.4-6.1-10.4s6.2,2,8.1,5.5C117.7,83.2,115.3,77.1,112.2,75.2L112.2,75.2z M110.8,41
		c-55.1-6.5-72.3,47.4-72.3,47.4l0-0.1c0,0,16.7-54.6,71.9-49.2c8.1,0.7,15.8,0,18.8-7.3c2.4-5.9-0.4-12.6-6.2-15
		c-4.7-1.9-10.1,0.3-12,5c-1.6,3.8,0.2,8.1,4,9.6c3,1.2,6.5-0.2,7.7-3.2c1-2.4-0.2-5.4-2.6-6.4l0-0.1c2.6,0.9,4,3.8,3.1,6.4
		c-1.2,3.3-4.8,5-8,3.8c-4.1-1.4-6.2-5.9-4.8-10c1.8-5.1,7.4-7.8,12.6-6c6.4,2.3,9.8,9.3,7.5,15.7C127.6,39.6,119.6,41.9,110.8,41z
		 M167.7,46.9c-21-4.4-14.9,5.2-14.9,5.2s-20.5,6.8-25.4-8.2c16.9-11.1,33.6-3.9,33.6-3.9c0.8,0.4-16.1-8.2-32.8-0.1
		c0,0,13.8-20.7,33.4-6c19.6,14.7,26.6,7.2,26.6,7.2S181.8,49.8,167.7,46.9z M958.7,64c-8.1-1.8-15.4,1.9-15.4,1.9s11.4-3.1,17,0.3
		c0,0-2.5-1.3-5.1,0.2c-2.6,1.5-16,9.2-28-7.6c0,0,6.7,4.6,13.1,2.6C946.6,59.4,950.3,59.2,958.7,64z"/>
	<path class="st1" d="M1006.6,88.2c-6.7,3.4-9.4,11.6-6,18.3c2.7,5.4,9.3,7.5,14.6,4.8c4.3-2.2,6-7.4,3.8-11.7
		c-1.7-3.4-6.1-5.2-9.5-3.4c3.8-1.9,8.4-0.4,10.3,3.4c2.4,4.7,0.5,10.5-4.2,12.9c-5.9,3-13.1,0.6-16.1-5.3
		c-3.7-7.4-0.8-16.4,6.6-20.1c4.8-2.4,10.1-2.6,14.8-0.9c-26.7-23.8-67.6-22.9-93.2,2.7c-12.6,12.6-17.7,29.8-15.4,46.2h86.5
		c-1.2-6.8-4.4-13.3-9.6-18.5c-7.2-7.2-17.7-10.2-26.9-7.9l0.7-0.2c9.6-2.1,19.9,0.7,27.1,8.4c5,5.3,8,11.6,9.2,18.3h48.1
		c-2.7-16.2-10-31.7-22-44.4C1020.4,86.1,1012.9,85,1006.6,88.2z"/>
	<path class="st1" d="M1065.2,135h1c0-0.5,0-1.1-0.1-1.6C1065.8,133.9,1065.5,134.5,1065.2,135z"/>
	<path class="st1" d="M1069.1,129c0.2,2,0.4,4,0.6,6h10.4v-17.5C1075.9,120.9,1072.3,124.7,1069.1,129z"/>
	<path class="st1" d="M1063.5,115.8c-1.1,6.4-2.1,12.8-3.1,19.2h1.3c1.2-2.2,2.5-4.3,4-6.3C1065.2,124.3,1064.5,120,1063.5,115.8z"
		/>
	<path class="st1" d="M0,135h27.2C19,129.8,9.8,125.9,0,123.8V135z"/>
	<path class="st1" d="M0,99.5v21c12.4,2.4,23.8,7.4,33.6,14.5h2.2c-6.3-9.3-12.5-18.8-18.5-28.6C11.6,103.7,5.8,101.5,0,99.5z"/>
	<path class="st2" d="M117.7,83.2c-1.9-3.6-8.1-5.5-8.1-5.5s-4.1,7.1,6.1,10.4c10.2,3.3,12.5,6.6,12.5,6.6
		c-3.1-25.6-16.1-19.4-16.1-19.4l-0.1,0C115.3,77.1,117.7,83.2,117.7,83.2z"/>
	<path class="st2" d="M0,123.8c9.8,2.1,19,6,27.2,11.2h6.4c-9.9-7-21.3-12.1-33.6-14.5V123.8z"/>
	<path class="st2" d="M50.2,125c-2.6-2.5-5.2-4.7-7.9-6.9c-3.4-22.9,5.3-47,24.9-62.2c1.8-1.4,3.8-2.7,5.7-3.9
		c5-1.5,10.6-0.8,15.3,2.3c6.7,4.5,8.5,13.5,4,20.2c-3.6,5.3-10.8,6.8-16.2,3.2c-4.3-2.9-5.4-8.7-2.5-12.9c1.1-1.7,2.9-2.9,4.8-3.3
		c0,0,0,0,0,0c0,0,0,0,0,0c0,0.1,0,0.1,0.1,0.2c0,0,0.4,3.3,3.9,3.2c3.5-0.1,5.4,2.5,5.4,2.5c-0.3-10.5-8.8-6.6-8.8-6.6
		s-0.2,0.1-0.4,0.3c0,0,0,0,0,0c0,0,0,0,0,0c0,0,0,0-0.1,0.1c-2.3,0.3-4.4,1.5-5.7,3.5c-3.2,4.7-1.9,11.1,2.8,14.2
		c5.9,3.9,13.8,2.4,17.8-3.5c4.9-7.3,3-17.3-4.4-22.2c-3.6-2.4-7.7-3.5-11.7-3.4c21.9-10.3,48.8-4.4,64.2,15.6
		c14.3,18.5,10.9,45.1-7.6,59.4c-14.8,11.4-36.1,8.7-47.5-6.1c-9.2-11.8-7-28.8,4.8-38c6.3-4.8,14.7-6.1,21.5-3.4l-0.5-0.2
		c-7.2-2.6-15.5-1.4-21.8,3.8c-11.9,9.8-13.6,27.4-3.8,39.3c12.3,14.9,34.8,17.2,49.7,4.9c18.6-15.4,21.4-43.7,6-62.2
		C121.7,38,86.4,37.2,63.2,56.4C45,71.4,36.7,93.8,39,115.7c-4.5-3.3-9.2-6.1-13.9-8.6C15.8,93.8,7.2,80.1,0,66.4V76
		c4.5,8.8,9.6,17.6,14.8,26.4C9.9,100.3,5,98.5,0,97v2.5c5.8,2,11.6,4.2,17.3,6.9c6,9.7,12.3,19.3,18.5,28.6h11.3
		c-1.7-3.8-3-7.7-3.9-11.7c1.7,1.5,3.4,3.1,5.1,4.8c2.3,2.3,4.3,4.6,6.3,6.8h4.8C56.7,131.6,53.6,128.3,50.2,125z M29,112.8
		c3.6,2.3,7.2,4.8,10.7,7.5c0.6,3.7,1.6,7.5,2.9,11.1C38,125.3,33.4,119.1,29,112.8z"/>
	<path class="st2" d="M39.9,19c-5.3,0.9-10.6-2.1-12.3-7c0,0,0.1-0.1,0.1-0.1c0,0,2.3-1.2,1.3-3.8c-1-2.6,0.3-4.7,0.3-4.7
		c-7.7,3.1-2.4,8.4-2.4,8.4s0.4,0.4,0.7,0.2c1.7,5.2,7,8.5,12.5,7.5c7.6-1.3,12.6-8.6,11.3-16.2c-0.2-1.2-0.5-2.3-1-3.4h-0.8
		c0.5,1.2,1,2.5,1.2,3.9C52.1,11.1,47.1,17.7,39.9,19z"/>
	<path class="st2" d="M13.6,14.6c2.6,14.8,16.8,24.6,31.6,22C62.7,33.4,74.6,17.4,73,0h-1.6c1.9,16.9-9.6,32.5-26.6,35.6
		c-14.1,2.5-27.7-6.9-30.2-21C13.7,9.3,14.9,4.2,17.4,0h-1.4C13.6,4.3,12.6,9.4,13.6,14.6z"/>
	<path class="st2" d="M130.5,31.6c2.3-6.4-1.1-13.4-7.5-15.7c-5.1-1.8-10.7,0.9-12.6,6c-1.4,4.1,0.7,8.6,4.8,10
		c3.3,1.2,6.9-0.6,8-3.8c0.9-2.6-0.4-5.5-3.1-6.4l0,0.1c2.4,1,3.6,4,2.6,6.4c-1.2,3-4.7,4.4-7.7,3.2c-3.8-1.6-5.5-5.9-4-9.6
		c1.9-4.7,7.3-6.9,12-5c5.9,2.4,8.7,9.2,6.2,15c-3,7.3-10.8,8-18.8,7.3c-55.2-5.4-71.9,49.2-71.9,49.2l0,0.1
		c0,0,17.2-53.9,72.3-47.4C119.6,41.9,127.6,39.6,130.5,31.6z"/>
	<path class="st2" d="M161.6,33.9c-19.6-14.7-33.4,6-33.4,6c16.6-8.1,33.6,0.5,32.8,0.1c0,0-16.7-7.2-33.6,3.9
		c4.9,15,25.4,8.2,25.4,8.2s-6.1-9.6,14.9-5.2c14.1,3,20.5-5.8,20.5-5.8S181.2,48.6,161.6,33.9z"/>
	<path class="st2" d="M971.9,66.4c-9.3-0.4-16.6-8.2-16.3-17.5c0.2-7.5,6.5-13.4,14-13.2c6,0.2,10.7,5.2,10.6,11.2
		c-0.1,4.8-4.2,8.6-9,8.4c-2-0.1-3.9-1-5.3-2.4c0,0,0,0,0,0c0,0,0,0,0,0c0,0,0,0,0,0c0,0,0.1-0.1,0.1-0.1c0,0,2.4-1.8,0.8-4.6
		c-1.7-2.8-0.5-5.5-0.5-5.5c-8.3,5-1.3,10-1.3,10s0.2,0.1,0.4,0.2c0,0,0,0,0,0c0,0,0,0,0,0c0,0,0.1,0,0.1,0c1.3,1.8,3.5,3,5.9,3
		c5.3,0.2,9.7-4,9.9-9.3c0.2-6.6-5-12.1-11.6-12.3c-8.3-0.2-15.1,6.2-15.4,14.5C954.1,57,959,64,966.1,66.8
		c-14,1.7-27.6,7.7-39.2,18.5c-13.9,13-19.6,31.8-17.1,49.6h2.5c-2.4-16.4,2.8-33.6,15.4-46.2c25.6-25.6,66.5-26.5,93.2-2.7
		c-4.7-1.7-10-1.5-14.8,0.9c-7.4,3.7-10.3,12.7-6.6,20.1c3,5.9,10.2,8.3,16.1,5.3c4.7-2.4,6.6-8.1,4.2-12.9
		c-1.9-3.8-6.5-5.3-10.3-3.4c3.4-1.7,7.8,0,9.5,3.4c2.2,4.3,0.4,9.5-3.8,11.7c-5.4,2.7-11.9,0.6-14.6-4.8c-3.4-6.7-0.7-14.9,6-18.3
		c6.4-3.2,13.8-2,18.9,2.4c12,12.7,19.4,28.3,22,44.4h3.6c-2.7-16.3-10.1-32.1-22.3-45.1C1013.8,73.9,992.8,65.5,971.9,66.4z"/>
	<path class="st2" d="M1080,117.5v-3.7c-4.2,3.3-8.1,7-11.5,11.2c-0.9-5.5-2.2-10.8-3.8-15.9c3.8-20.5,8.6-40.8,15.3-58.9v-9.8
		c-8,17.6-14.1,37.6-19.1,58.1c-12.5-30.4-34.4-54.4-42.2-78.2c-1.8-6.4,0.6-13.4,6.3-17.3c5.8-3.9,13.6-2.4,17.6,3.4
		c3.1,4.6,1.9,10.9-2.7,14.1c-3.7,2.5-8.7,1.5-11.2-2.2c-2-3-1.2-7,1.7-9l-0.1-0.1c-3.2,2.2-4,6.5-1.8,9.7c2.7,4,8.1,5.1,12.1,2.4
		c5-3.4,6.3-10.1,2.9-15.1c-4.2-6.2-12.7-7.9-18.9-3.7c-4.4,2.9-6.9,7.6-7.3,12.5C1016,9.9,1015.6,5,1016,0h-0.9
		c-1.5,14.4,4.2,28.2,12.4,42.8c-3.4-2.5-7.8-3.3-12-1.7c-5.3,2-8,7.9-6,13.2c1.6,4.3,6.3,6.4,10.6,4.9c3.4-1.3,5.1-5,3.9-8.5
		c-1-2.7-4-4.1-6.8-3.1l0,0.1c2.5-0.9,5.3,0.4,6.3,2.9c1.2,3.2-0.4,6.7-3.6,7.9c-3.9,1.5-8.3-0.6-9.8-4.5c-1.8-5,0.7-10.5,5.6-12.3
		c4.8-1.8,10.1-0.2,13.2,3.5c10,17.5,23.1,36.1,30.9,57.9c-2.5,10.6-4.8,21.4-6.8,31.9h7.5c1-6.4,2-12.8,3.1-19.2
		c1,4.2,1.7,8.4,2.2,12.9c-1.4,2-2.8,4.2-4,6.3h3.4c0.3-0.5,0.6-1.1,1-1.6c0,0.5,0,1.1,0.1,1.6h3.4c-0.1-2-0.3-4-0.6-6
		C1072.3,124.7,1075.9,120.9,1080,117.5z"/>
	<path class="st2" d="M963,108.4l-0.7,0.2c9.2-2.3,19.7,0.7,26.9,7.9c5.2,5.2,8.5,11.8,9.6,18.5h0.5c-1.2-6.6-4.2-13-9.2-18.3
		C983,109.1,972.6,106.3,963,108.4z"/>
	<path class="st2" d="M1015.3,16c0,0,1.3-3.6-4.1-5.2C1011.2,10.8,1010.5,14.8,1015.3,16z"/>
	<path class="st2" d="M940.2,61.4c-6.4,2-13.1-2.6-13.1-2.6c12,16.8,25.4,9.1,28,7.6c2.6-1.5,5.1-0.2,5.1-0.2
		c-5.5-3.4-17-0.3-17-0.3s7.4-3.7,15.4-1.9C950.3,59.2,946.6,59.4,940.2,61.4z"/>
	<path class="st2" d="M1034.5,37c-8.3,5-1.3,10-1.3,10s0.2,0.1,0.4,0.2c0,0,0,0,0,0c0,0,0,0,0,0c0,0,0.1,0,0.1,0c0,0,0,0,0.1,0
		c0,0,0.1,0,0.1,0c0,0,0.1,0,0.1,0c0,0,0,0,0,0c0,0,0,0,0,0c0,0,0,0,0,0c0,0,0.1-0.1,0.1-0.1c0,0,2.4-1.8,0.8-4.6
		C1033.3,39.7,1034.5,37,1034.5,37z"/>
</g>
</svg>
