<?xml version="1.0" encoding="utf-8"?>
<!-- Generator: Adobe Illustrator 24.1.1, SVG Export Plug-In . SVG Version: 6.00 Build 0)  -->
<svg version="1.1" id="Слой_1" xmlns="http://www.w3.org/2000/svg" xmlns:xlink="http://www.w3.org/1999/xlink" x="0px" y="0px"
	 viewBox="0 0 606.7 123.8" style="enable-background:new 0 0 606.7 123.8;" xml:space="preserve">
<style type="text/css">
	.st0{fill:#FFFFFF;}
</style>
<g id="Layer_1">
	<g>
		<path class="st0" d="M108.6,46.7c3,3.2,4.4,7.8,4.4,13.7c0,6.8-1.5,12.1-4.7,15.8c-3.2,3.7-7.7,5.5-13.6,5.5c-1.5,0-3.4,0-5.8-0.1
			s-4.5-0.2-6.5-0.3l0.2-11.9l-0.2-27.3l13.3-0.2C101.3,41.9,105.7,43.6,108.6,46.7z M106,74.4c2.5-3.1,3.8-7.5,3.8-13.4
			c0-5.4-1.2-9.5-3.6-12.3c-2.4-2.8-5.9-4.2-10.6-4.2c-1.1,0-2.6,0-4.6,0.1c-2,0.1-3.7,0.1-5.3,0.3l-0.2,24.4l0.1,9.4l5.2,0.3
			c1.8,0.1,3.2,0.1,4.3,0.1C99.9,79,103.5,77.5,106,74.4L106,74.4z"/>
		<path class="st0" d="M200.5,78.9l-0.3,2.5h-20.6l0.2-11.9l-0.2-27.3h20.6l0.3,0.3l-0.3,2.6l-9.2-0.1l-8.1,0.1l-0.1,14.8l7.7,0.1
			l6.6-0.1l0.3,0.3l-0.3,2.6l-14.2-0.1l-0.1,6.7l0.1,9.4l7.9,0.1l9.6-0.3L200.5,78.9z"/>
		<path class="st0" d="M305.5,81.4h-3l-1-11.9l-2.4-21.7h-0.3l-11.9,29H284l-11.5-29h-0.3l-2.4,21.6l-1.2,12.2h-2.8l4.3-39.2h3.7
			l2.2,6.1l9.6,24.2h0.3l10.2-24.7l2-5.5h3.7L305.5,81.4z"/>
		<path class="st0" d="M346,43.7l-0.5,3l-0.6,0.2c-1.1-0.8-2.4-1.3-3.7-1.7c-1.2-0.3-2.5-0.6-3.8-0.6c-1.5,0-3.2,0.3-4.5,1.1
			c-1.2,0.7-2.2,1.6-3,2.8c-0.7,1-1,2.3-1,3.5c0,1.2,0.3,2.4,1.1,3.3c0.8,0.9,1.7,1.8,2.7,2.4c1.4,0.9,2.9,1.6,4.3,2.3
			c2.1,1.1,3.9,2,5.3,2.9c1.4,0.9,2.5,2,3.4,3.2c0.9,1.4,1.4,3.1,1.4,4.9c0,1.9-0.5,3.8-1.5,5.4c-1.1,1.7-2.6,3.1-4.4,3.9
			c-2,0.9-4.2,1.4-6.4,1.4c-1.7,0-3.5-0.3-5.1-0.7c-1.7-0.4-3.3-1.1-4.8-2l0.3-3.4l0.4-0.2c1.4,1.2,2.9,2,4.5,2.6
			c1.5,0.6,3.2,0.9,4.9,0.9c1.6,0,3.2-0.3,4.7-1.1c1.3-0.7,2.3-1.6,3.2-2.8c0.7-1.1,1.1-2.4,1.1-3.8c0-1.3-0.3-2.5-1.1-3.5
			c-0.8-1-1.7-1.9-2.7-2.5c-1.1-0.7-2.6-1.4-4.5-2.4c-1.8-0.9-3.5-1.8-5.1-2.7c-1.3-0.9-2.5-1.9-3.3-3.2c-0.9-1.4-1.4-3.1-1.4-4.7
			c0-1.9,0.4-3.7,1.4-5.2c1-1.6,2.6-2.9,4.3-3.8c2-0.9,4.1-1.4,6.2-1.4C340.6,41.9,343.4,42.5,346,43.7z"/>
		<path class="st0" d="M387.8,42.7c1.8,0.5,3.5,1.4,4.9,2.5l-0.6,2.8l-0.5,0.1c-2.7-2.2-6.1-3.4-9.7-3.4c-4.3,0-7.8,1.4-10.1,4.4
			s-3.5,7.2-3.5,12.8s1.1,9.8,3.4,12.7s5.5,4.3,9.7,4.4c1.9,0,3.8-0.3,5.6-1c1.9-0.7,3.6-1.6,5.1-2.8l0.5,0.2l-0.3,3
			c-3.3,2.2-7.2,3.5-11.2,3.5c-5.1,0-9.1-1.7-11.9-5.1c-2.8-3.4-4.2-8.3-4.2-14.7s1.4-11.4,4.3-14.9c2.9-3.5,7.1-5.3,12.5-5.3
			C383.9,41.9,385.9,42.1,387.8,42.7z"/>
		<path class="st0" d="M524.3,78.9l-0.3,2.5h-20.7l0.2-11.9l-0.2-27.3h20.6l0.3,0.3l-0.3,2.6l-9.1-0.1l-8.1,0.1l-0.1,14.8l7.7,0.1
			l6.6-0.1l0.3,0.3l-0.3,2.6l-14.2-0.1l-0.1,6.7l0.1,9.4l7.9,0.1l9.6-0.3L524.3,78.9z"/>
		<path class="st0" d="M147.7,65.3c2.6-0.9,4.8-2.6,6.3-4.8c1.5-2.2,2.3-4.8,2.2-7.4c0-3.6-1-6.3-3-8.2c-2-1.9-4.9-2.8-8.6-2.8
			l-10.5,0.1l0.2,27.3l-0.2,11.9h3.2l-0.2-12.1v-3.2l0.1-2.8l0.1-18.3l6.8-0.1c2.8,0.1,4.9,0.9,6.5,2.2c1.5,1.4,2.2,3.5,2.2,6.2
			c0.1,2.3-0.6,4.6-2,6.5c-1.4,1.8-3.5,3.1-5.7,3.6l-5.2-0.1v2.8h4.9c2.7,4.7,6.1,9.9,10.1,15.6l0.5,0.3c0.9-0.2,1.9-0.4,2.7-0.8
			v-0.4C154.3,75.4,150.8,70.3,147.7,65.3z"/>
		<path class="st0" d="M479.1,45c-2-2-4.9-2.9-8.5-2.9l-10.5,0.1l0.2,27.3l-0.2,11.9h3.2l-0.1-12.1v-2.4l0,0l0.1-2.8l0.1-19.2
			l6.8-0.1c2.8,0.1,5,0.9,6.5,2.3s2.2,3.7,2.2,6.5c0.2,2.6-0.7,5.2-2.3,7.3c-1.7,2-4,3.2-6.6,3.3l-3.7-0.1V67h3.2
			c4.4,0,6.6-1.2,9-3.6c2.5-2.4,3.7-5.7,3.7-10C482.2,49.7,481.1,47,479.1,45z"/>
		<polygon class="st0" points="234,42.2 230.4,42.2 215.4,81.4 218.7,81.4 219.6,77.9 222.8,69.6 223.9,66.8 231.9,45.9 232.3,45.9 
			239.6,66.8 231.6,66.8 226.9,66.8 225.7,69.6 231.2,69.5 240.5,69.6 243.5,78.1 244.4,81.4 247.7,81.4 		"/>
		<polygon class="st0" points="426.4,42.2 422.7,42.2 407.8,81.4 411.1,81.4 412,77.9 415.2,69.6 416.3,66.8 424.3,45.9 424.7,45.9 
			431.9,66.8 424,66.8 419.7,66.8 418.5,69.6 423.7,69.5 433,69.6 435.9,78.1 436.8,81.4 440,81.4 		"/>
	</g>
</g>
</svg>
