<svg id="Layer_3" data-name="Layer 3" xmlns="http://www.w3.org/2000/svg" viewBox="0 0 35.99 39.73"><defs><style>.cls-1{fill:#fff;}.cls-2{fill:#d1d1d1;}</style></defs><path class="cls-1" d="M207.34,124.92c-.08-1.39-2.14-3-3.32-4.35s-2-2.39-2.74-2.21a1.64,1.64,0,0,1-1.38-.46s-2.68-3.18-2.79-3.87a1.23,1.23,0,0,1,.21-1,33.77,33.77,0,0,0,2.31-3.83,16.65,16.65,0,0,0-.11-9.33c-1.39-3.73-5.69-7.94-8.25-8.37a23.93,23.93,0,0,0-9.53.43c-3.29.88-7.57,4.69-9,7.07s-1.53,5.52-1.06,8.59,2.78,5.49,3.92,7,6.33,4.14,9.77,3.77,3.36-.73,4-1a3.47,3.47,0,0,1,2.09,0c.66.19,3.88,3.88,4.13,4.83a4.11,4.11,0,0,1,0,1.8c0,.58,5.49,6.22,5.49,6.22a6.27,6.27,0,0,0,2.05.76c.69,0,1.35-1,1.35-1a14.72,14.72,0,0,0,2-1.75C207.68,127,207.41,126.31,207.34,124.92Zm-17.29-8.8a13.4,13.4,0,0,1-7.07.76,13,13,0,0,1-7.81-5.49c-1.71-2.92-2.44-4.1-2.44-7.31s1.22-5.2,3.59-7.3a19.9,19.9,0,0,1,8-4.24,17.18,17.18,0,0,1,5.56-.25c2.47.27,4.81,2.88,6.32,4.47a11.17,11.17,0,0,1,2.42,6s.92,5.7-1.83,8.41S192.63,115.2,190.05,116.12Zm2.68.52c0-.41.82-1.4,1.21-1.65s1.58-1.27,2-.74a14.42,14.42,0,0,1,1,1.5,30.69,30.69,0,0,1,2.37,3.44c.06.41-.06.9-.86,1.39s-1,.9-1.66.59A23.14,23.14,0,0,1,192.73,116.64Zm13.19,10.51s-2,2-2.8,2.07a3.16,3.16,0,0,1-2.24-1c-.54-.56-3.76-4-3.9-4.3s-.22-.68.61-1.31l2.92-2.27a2.07,2.07,0,0,1,.76-.39c.41-.1.66.22,1.1.76s3.85,4.51,3.85,4.51a2.52,2.52,0,0,1,.16,1A2.46,2.46,0,0,1,205.92,127.15Z" transform="translate(-171.43 -91.18)"/><path class="cls-1" d="M196.41,99.61c-1.11-2.36-3.79-5.12-6-5.79a16.26,16.26,0,0,0-8.45.31,16.66,16.66,0,0,0-7.12,6.68c-1.44,2.78-1.24,5.17,1.16,10.21s8.22,4.8,10.84,4.41,3.29-.83,6.84-3.36,3.71-4.56,3.74-7.09A15.62,15.62,0,0,0,196.41,99.61ZM193,111.41c-3.06,2.44-4,2.86-6.49,3.08s-7.57.55-9.78-4-2.38-6.78-1.06-9.32a15.34,15.34,0,0,1,6.55-6.1,15,15,0,0,1,7.77-.28c2.06.61,4.52,3.13,5.54,5.29a14.21,14.21,0,0,1,.91,4.9C196.44,107.25,196.08,109,193,111.41Z" transform="translate(-171.43 -91.18)"/><path class="cls-2" d="M192.87,117.13a11.89,11.89,0,0,0,1.15-.4A7.91,7.91,0,0,0,195,116s0,1-.5,1.22A1.43,1.43,0,0,1,192.87,117.13Z" transform="translate(-171.43 -91.18)"/><path class="cls-2" d="M193.65,118.46l1.19-.63a9.62,9.62,0,0,0,1-1s-.27,1.35-.78,1.6A2,2,0,0,1,193.65,118.46Z" transform="translate(-171.43 -91.18)"/><path class="cls-2" d="M194.45,119.33l1.2-.63a5,5,0,0,0,.76-.93c.08,0,.17,1.17-.56,1.4A2.66,2.66,0,0,1,194.45,119.33Z" transform="translate(-171.43 -91.18)"/><path class="cls-2" d="M195.29,120.54s.85-.5,1.25-.72a5.69,5.69,0,0,0,.79-1.06c.13-.05.33,1.19-.58,1.59A2.07,2.07,0,0,1,195.29,120.54Z" transform="translate(-171.43 -91.18)"/><path class="cls-2" d="M201.49,122.31l-2.34,1.56a10.29,10.29,0,0,1-2.54.48s2.34,1.05,3.3.35A3.6,3.6,0,0,0,201.49,122.31Z" transform="translate(-171.43 -91.18)"/><path class="cls-2" d="M202.74,123.71l-2.06,1.92a10.77,10.77,0,0,1-2.43.89s2.48.65,3.31-.19A3.63,3.63,0,0,0,202.74,123.71Z" transform="translate(-171.43 -91.18)"/><path class="cls-2" d="M204.08,126.22s-1.44,1-2.09,1.41a13,13,0,0,1-2.6.52s2.8.76,3.63.14A2.19,2.19,0,0,0,204.08,126.22Z" transform="translate(-171.43 -91.18)"/><path class="cls-2" d="M183.06,97.15c-.76-.18-1,.62-1.27,1.44S183,99.94,183,99.94a2.18,2.18,0,0,0,1-.13c.39-.2.52-.89.56-1.34S183.81,97.33,183.06,97.15Zm.67,2.33a1.55,1.55,0,0,1-.72.09s-1-.39-.87-1,.38-1.2.94-1.06,1.09.63,1.07,1S184,99.33,183.73,99.48Z" transform="translate(-171.43 -91.18)"/><path class="cls-2" d="M190.23,97.27c-.48-.58-2.6-1.3-3.27-1a3.85,3.85,0,0,0-1.45,2.26.83.83,0,0,0,.2.77c.09.07.72.28,1.58.64a19.92,19.92,0,0,0,2.13.69c1.12.36.61-.6,1-1.56S190.7,97.86,190.23,97.27Zm-.48,1.64c-.25.71.12,1.41-.7,1.14a12.56,12.56,0,0,1-1.56-.5c-.62-.26-1.09-.42-1.15-.47-.24-.18-.15-.56-.15-.56a2.79,2.79,0,0,1,1.06-1.65,3.21,3.21,0,0,1,2.39.72C190,98,190,98.21,189.75,98.91Z" transform="translate(-171.43 -91.18)"/></svg>