<?xml version="1.0" encoding="utf-8"?>
<!-- Generator: Adobe Illustrator 24.1.1, SVG Export Plug-In . SVG Version: 6.00 Build 0)  -->
<svg version="1.1" id="Layer_1" xmlns="http://www.w3.org/2000/svg" xmlns:xlink="http://www.w3.org/1999/xlink" x="0px" y="0px"
	 viewBox="0 0 32 32" style="enable-background:new 0 0 32 32;" xml:space="preserve">
<style type="text/css">
	.st0{fill:#FFFFFF;}
</style>
<path class="st0" d="M15.1,32.1c-0.6-0.1-1.2-0.1-1.8-0.3c-3.6-0.6-6.9-2.5-9.3-5.2C-1.9,20-1.2,9.9,5.4,4
	c5.7-5.1,14.3-5.4,20.3-0.7c3.1,2.3,5.2,5.6,6,9.4c0.1,0.7,0.2,1.4,0.3,2.1l0.1,0.3v1.9c0,0.2,0,0.4-0.1,0.7
	c-0.7,7.1-6.1,12.9-13.2,14.2c-0.6,0.1-1.2,0.2-1.8,0.3L15.1,32.1z M30.4,16.1c0-8-6.4-14.4-14.4-14.4C8.1,1.6,1.6,8.1,1.6,16
	C1.6,24,8,30.4,16,30.5C24,30.5,30.4,24,30.4,16.1L30.4,16.1L30.4,16.1z"/>
<path class="st0" d="M22,11.8c0,1.1-0.5,2.2-1.3,3c-0.8,0.7-1.6,1.4-2.4,2c-0.5,0.4-0.9,0.9-1.1,1.4c0,0.1-0.1,0.2-0.1,0.3
	c-0.3,0.8-1.1,1.2-1.9,0.9c0,0,0,0-0.1,0c-0.8-0.2-1.3-1-1.1-1.8c0.1-1,0.7-1.9,1.5-2.5c0.6-0.5,1.2-0.9,1.7-1.4
	c0.6-0.4,1-1.1,1.1-1.8c0.1-1-0.6-2-1.6-2.1c-0.6-0.1-1.1-0.1-1.7,0c-0.5,0.1-1,0.5-1.2,1c-0.2,0.4-0.4,0.8-0.6,1.2
	c-0.4,0.8-1.3,1.1-2.1,0.8c-0.8-0.3-1.2-1.1-0.9-1.9c0.3-1.3,1.2-2.5,2.4-3.1c2.5-1.3,5.6-1.2,7.9,0.5C21.4,9.1,22.1,10.4,22,11.8z"
	/>
<path class="st0" d="M17.7,23.2c0,1.1-0.9,2-2,2s-2-0.9-2-2s0.9-2,2-2S17.7,22.1,17.7,23.2z"/>
</svg>
