<?xml version="1.0" encoding="utf-8"?>
<!-- Generator: Adobe Illustrator 24.1.1, SVG Export Plug-In . SVG Version: 6.00 Build 0)  -->
<svg version="1.1" id="Layer_1" xmlns="http://www.w3.org/2000/svg" xmlns:xlink="http://www.w3.org/1999/xlink" x="0px" y="0px"
	 viewBox="0 0 85.1 85" style="enable-background:new 0 0 85.1 85;" xml:space="preserve">
<style type="text/css">
	.st0{fill:#FFFFFF;}
</style>
<path class="st0" d="M62.4,35.4c-16.8,18-37.2,15.8-37.2,15.8V40.7L0,61.1l25.2,20.3V69.9C25.2,69.9,55.6,72,62.4,35.4z"/>
<g>
	<path class="st0" d="M4.3,35.1c0-7,5.6-12.6,12.6-12.6s12.6,5.6,12.6,12.6c0,2.3-0.6,4.5-1.7,6.4v4.8c0.1-0.1,0.3-0.3,0.4-0.4
		l4.4,2.6c1.4-0.2,3-0.5,4.7-0.9l-7.2-4.2c1.5-2.4,2.4-5.2,2.4-8.2c0-1.8-0.3-3.6-0.9-5.3l24-9.5c2,3.9,6,6.5,10.7,6.5
		c6.6,0,12-5.4,12-12s-5.4-12-12-12s-12,5.4-12,12c0,0.9,0.1,1.7,0.3,2.5L30.2,27c-2.7-4.5-7.7-7.5-13.3-7.5
		c-8.6,0-15.6,7-15.6,15.6c0,6.4,3.8,11.8,9.3,14.2l2.7-2.2C8.1,45.6,4.3,40.8,4.3,35.1z M66.3,5.2c5.4,0,9.7,4.3,9.7,9.7
		s-4.3,9.7-9.7,9.7c-5.4,0-9.7-4.3-9.7-9.7C56.6,9.5,60.9,5.2,66.3,5.2z"/>
	<path class="st0" d="M66.3,46.2c-1.5,0-3,0.2-4.4,0.5c-0.6,1.6-1.3,3.1-2,4.5c2-0.9,4.1-1.5,6.5-1.5c8.4,0,15.2,6.8,15.2,15.2
		s-6.8,15.2-15.2,15.2s-15.2-6.8-15.2-15.2c0-0.8,0.1-1.6,0.2-2.4c-1.2,1.1-2.5,2.1-3.8,3c0.3,10.1,8.6,18.2,18.8,18.2
		c10.4,0,18.8-8.4,18.8-18.8C85.1,54.6,76.7,46.2,66.3,46.2z"/>
</g>
</svg>
