<?xml version="1.0" encoding="utf-8"?>
<!-- Generator: Adobe Illustrator 24.1.1, SVG Export Plug-In . SVG Version: 6.00 Build 0)  -->
<svg version="1.1" id="Layer_2_1_" xmlns="http://www.w3.org/2000/svg" xmlns:xlink="http://www.w3.org/1999/xlink" x="0px" y="0px"
	 viewBox="0 0 33.4 33.4" style="enable-background:new 0 0 33.4 33.4;" xml:space="preserve">
<style type="text/css">
	.st0{fill:#FFFFFF;}
</style>
<path class="st0" d="M16.7,2.9C9.1,2.9,2.9,9.1,2.9,16.7c0,7.6,6.2,13.8,13.8,13.8s13.8-6.2,13.8-13.8C30.5,9.1,24.3,2.9,16.7,2.9z
	 M16.7,27.8c-6.2,0-11.2-5-11.2-11.2c0-6.2,5-11.1,11.2-11.1s11.2,5,11.2,11.1C27.9,22.9,22.9,27.8,16.7,27.8z"/>
<path class="st0" d="M26,16.7c0,5.1-4.2,9.3-9.3,9.3s-9.3-4.2-9.3-9.3H26z"/>
</svg>
