<?xml version="1.0" encoding="utf-8"?>
<!-- Generator: Adobe Illustrator 24.1.1, SVG Export Plug-In . SVG Version: 6.00 Build 0)  -->
<svg version="1.1" id="Layer_4" xmlns="http://www.w3.org/2000/svg" xmlns:xlink="http://www.w3.org/1999/xlink" x="0px" y="0px"
	 viewBox="0 0 60 100" style="enable-background:new 0 0 60 100;" xml:space="preserve">
<style type="text/css">
	.st0{fill:#FFFFFF;}
</style>
<path class="st0" d="M17.5,67.7C17.5,67.7,15.2,64.2,17.5,67.7"/>
<path class="st0" d="M44.6,88.7c-12.2,4.5-25.8-2-30.4-14.3c-3.5-9.6-0.6-19.9,6.5-26.2c-0.2,0.1-0.4,0.1-0.6,0.2
	C6.3,53.4-0.8,68.7,4.3,82.6c5.1,13.8,20.4,20.9,34.1,15.8c8-2.9,13.8-9.3,16.2-16.9C52.1,84.6,48.7,87.2,44.6,88.7z"/>
<path class="st0" d="M33.6,82.5c1.2-0.5,2.7,0,3.2,1.2s0,2.7-1.2,3.2c-1.2,0.5-2.7,0-3.2-1.2C31.8,84.4,32.4,83,33.6,82.5z"/>
<path class="st0" d="M33.9,76.2c0.9-0.4,1.9,0,2.3,0.9c0.4,0.9,0,1.9-0.9,2.3c-0.9,0.4-1.9,0-2.3-0.9C32.7,77.6,33,76.5,33.9,76.2z"
	/>
<path class="st0" d="M33.1,70.5c0.7-0.3,1.5,0,1.8,0.7s0,1.5-0.7,1.8c-0.7,0.3-1.5,0-1.8-0.7S32.4,70.8,33.1,70.5z"/>
<path class="st0" d="M12,26.6c-10.1,14,8.3,18.9,8.3,18.9c0.5-5-1.4-5.7-5.7-11.8C11.4,29.4,11.7,27.4,12,26.6z"/>
<path class="st0" d="M38.7,24.3c0,0,18-3.3,10.5-18.6c0,0-1.3,2.7-2.4,3.6C42,13.6,36.1,16.8,38.7,24.3z"/>
<path class="st0" d="M39.6-8c-51,53.9,12.8,60.9-2.2,105C91.2,32.7,16.5,56.3,39.6-8z M39.3,48.3c15.6,9.8,8.5,25.9,7.2,27.9
	C46.5,74,51.2,58.5,39.3,48.3z"/>
</svg>
