<?xml version="1.0" encoding="utf-8"?>
<!-- Generator: Adobe Illustrator 24.1.1, SVG Export Plug-In . SVG Version: 6.00 Build 0)  -->
<svg version="1.1" id="Layer_6" xmlns="http://www.w3.org/2000/svg" xmlns:xlink="http://www.w3.org/1999/xlink" x="0px" y="0px"
	 viewBox="0 0 73.4 58" style="enable-background:new 0 0 73.4 58;" xml:space="preserve">
<style type="text/css">
	.st0{fill:#FFFFFF;}
</style>
<path class="st0" d="M48,11.1L48,11.1l-0.5-0.9v-0.1c0.9-2.6,0.9-2.7,0.7-2.9L46.6,6c-0.1-0.1-0.2-0.1-0.3-0.1c-0.1,0-0.3,0-2.5,1.2
	l-0.1,0.1l-0.9-0.3V6.7c-1.2-2.5-1.3-2.5-1.6-2.5l-2.1,0.1c-0.3,0-0.4,0-1.2,2.7v0.1l-0.9,0.4H37c-0.9-0.3-1.8-0.6-2.7-0.8
	c-0.1,0-0.2,0.1-0.3,0.1l-1.4,1.6c-0.2,0.2-0.2,0.3,1.1,2.7l0.1,0.1l-0.3,0.9l-0.1,0c-2.6,1.2-2.6,1.3-2.6,1.6l0.1,2.1
	c0,0.3,0,0.4,2.7,1.1h0.1l0.4,0.9v0.1c-0.9,2.6-0.9,2.7-0.7,2.9l1.6,1.4c0.1,0.1,0.2,0.1,0.3,0.1c0.1,0,0.3,0,2.5-1.2h0.1l0.9,0.3
	v0.1c1.2,2.5,1.3,2.5,1.6,2.5l2.1-0.2c0.3,0,0.4,0,1.2-2.7V21l0.9-0.4h0.1c0.9,0.3,1.7,0.6,2.6,0.8c0.1,0,0.2,0,0.3-0.1l1.4-1.6
	c0.2-0.2,0.2-0.3-1.1-2.7L48,16.9l0.3-0.9h0.1c2.6-1.2,2.6-1.3,2.6-1.6l-0.2-2.1C50.7,12,50.7,11.9,48,11.1z M41.1,17.4
	c-1.9,0.1-3.4-1.3-3.5-3.2c-0.1-1.9,1.3-3.4,3.2-3.5c1.8-0.1,3.4,1.3,3.5,3.1C44.4,15.7,43,17.3,41.1,17.4z"/>
<path class="st0" d="M34.6,33.2l-0.2-0.1l-0.6-1.5l0.1-0.2c1.9-4.3,1.8-4.4,1.5-4.8l-2.6-2.5c-0.1-0.1-0.3-0.2-0.4-0.2
	c-0.1,0-0.6,0-4.3,1.7l-0.2,0.1l-1.5-0.6l0-0.2c-1.8-4.4-1.9-4.4-2.4-4.4h-3.6c-0.4,0-0.6,0-2.3,4.4L18,25.3l-1.5,0.6l-0.1-0.1
	c-1.4-0.7-2.9-1.2-4.4-1.6c-0.2,0-0.3,0.1-0.4,0.2l-2.6,2.5c-0.3,0.3-0.5,0.5,1.5,4.7l0.1,0.2l-0.6,1.5l-0.2,0.1
	c-4.5,1.7-4.5,1.9-4.5,2.3v3.5c0,0.5,0,0.6,4.5,2.2l0.2,0.1l0.6,1.5l-0.1,0.2c-1.9,4.3-1.8,4.4-1.5,4.8l2.6,2.5
	c0.1,0.1,0.3,0.2,0.4,0.2c0.1,0,0.6,0,4.3-1.7l0.2-0.1l1.5,0.6l0.1,0.2c1.8,4.4,1.9,4.4,2.4,4.4h3.6c0.5,0,0.6,0,2.3-4.4l0.1-0.2
	l1.5-0.6l0.1,0.1c1.4,0.7,2.9,1.2,4.4,1.6c0.2,0,0.3-0.1,0.4-0.2l2.6-2.5c0.3-0.3,0.5-0.5-1.6-4.7l-0.1-0.2l0.6-1.5l0.1-0.1
	c4.5-1.7,4.5-1.9,4.5-2.3v-3.5C39.1,35,39.1,34.8,34.6,33.2z M22.3,43c-3.1-0.1-5.6-2.7-5.6-5.8c0.1-3.1,2.7-5.6,5.8-5.6
	c3.1,0.1,5.6,2.6,5.6,5.7C28,40.4,25.4,43,22.3,43z"/>
<path class="st0" d="M62.8,29h-0.1l-0.9-1v-0.1c0.2-3.9,0.1-4-0.3-4.1l-2.7-1.2c-0.1,0-0.3,0-0.4,0c-0.1,0-0.4,0.2-2.9,2.6l-0.1,0.1
	h-1.4L54,25.1c-2.6-2.9-2.8-2.8-3.1-2.7l-2.8,1c-0.3,0.1-0.5,0.2-0.5,4.1v0.1l-1,0.9h-0.1c-1.3-0.1-2.6-0.1-3.9,0
	c-0.1,0-0.2,0.1-0.3,0.3L41,31.6c-0.2,0.3-0.2,0.5,2.6,3.2l0.1,0.1l0,1.4l-0.1,0.1c-3,2.6-2.9,2.8-2.8,3.1l1,2.8
	c0.1,0.4,0.2,0.5,4.1,0.4H46l0.9,1v0.1c-0.2,3.9-0.1,4,0.3,4.1l2.7,1.2c0.1,0,0.3,0,0.4,0c0.1,0,0.4-0.2,2.9-2.6l0.1-0.1h1.4
	l0.1,0.1c2.6,2.9,2.8,2.8,3.1,2.7l2.8-1c0.4-0.1,0.5-0.2,0.5-4.1v-0.2l1-0.9h0.1c1.3,0.1,2.6,0.1,3.9,0c0.1,0,0.2-0.1,0.3-0.3
	l1.2-2.7c0.2-0.3,0.2-0.5-2.6-3.2l-0.1-0.1l0-1.4l0.1-0.1c3-2.7,2.9-2.8,2.8-3.1l-1-2.7C66.9,29.1,66.8,28.9,62.8,29z M56,40.2
	c-2.5,0.9-5.2-0.4-6-2.9c-0.9-2.5,0.4-5.2,2.9-6c2.4-0.9,5.1,0.4,6,2.8C59.8,36.6,58.5,39.3,56,40.2L56,40.2z"/>
</svg>
