<?xml version="1.0" encoding="utf-8"?>
<!-- Generator: Adobe Illustrator 24.1.1, SVG Export Plug-In . SVG Version: 6.00 Build 0)  -->
<svg version="1.1" id="Layer_2_1_" xmlns="http://www.w3.org/2000/svg" xmlns:xlink="http://www.w3.org/1999/xlink" x="0px" y="0px"
	 viewBox="0 0 33.4 33.4" style="enable-background:new 0 0 33.4 33.4;" xml:space="preserve">
<style type="text/css">
	.st0{fill:#FFFFFF;}
</style>
<path class="st0" d="M27,0.2H6.3C2.9,0.2,0.1,3,0.1,6.4v20.8c0,3.4,2.8,6.2,6.2,6.2l0,0H27c3.4,0,6.2-2.8,6.2-6.2V6.4
	C33.2,3,30.4,0.2,27,0.2z M30.3,26.8c0,2-1.6,3.7-3.7,3.7h-20c-2,0-3.7-1.6-3.7-3.7v-20c0-2.1,1.5-3.7,3.7-3.7l0,0h20
	c2,0,3.7,1.6,3.7,3.7V26.8z"/>
<path class="st0" d="M8.5,27.1c-0.6,0-0.9-0.2-1.1-0.4c-0.2-0.2-0.3-0.4-0.3-0.6c-0.4-0.9-0.1-1.9,0.7-2.6l6.1-5.3
	c0.2-0.2,0.5-0.6,0.3-1c-0.1-0.3-0.2-0.5-0.3-0.6L6.6,9.5C6.1,8.9,6.2,8,6.5,7.5C6.5,7.2,6.8,7,7.3,7c0.5,0,1,0.1,1.5,0.2
	c0.5,0.1,1,0.4,1.4,0.8l2.6,2.7c1.6,1.9,3.6,4.1,4.2,4.5c0.8-0.4,4-3.8,6.8-7c0.5-0.6,0.9-0.8,1.5-0.8l0.1,0c0.5,0,1.1,0,1.5,0.6
	c0.4,0.6,0.1,1.7-0.7,2.5l-5.9,6.1c-0.3,0.3-0.5,0.9-0.3,1.2c0.1,0.2,0.2,0.5,0.5,0.6l5.9,4.7c0.5,0.3,0.7,1,0.8,1.2
	c0.1,0.7,0.3,1.3,0,1.9c-0.3,0.5-1.1,0.6-1.4,0.6c-1,0-1.9-0.4-2.6-1.2l-4.9-4.9c-0.2-0.2-0.6-0.4-0.8-0.4c-0.3,0-0.6,0.1-0.8,0.4
	l-4.5,4.6c-0.8,0.8-1.7,1.3-2.6,1.5C9,27.1,8.7,27.1,8.5,27.1z"/>
</svg>
