<?xml version="1.0" encoding="utf-8"?>
<!-- Generator: Adobe Illustrator 24.1.1, SVG Export Plug-In . SVG Version: 6.00 Build 0)  -->
<svg version="1.1" id="Layer_6" xmlns="http://www.w3.org/2000/svg" xmlns:xlink="http://www.w3.org/1999/xlink" x="0px" y="0px"
	 viewBox="0 0 660 460" style="enable-background:new 0 0 660 460;" xml:space="preserve">
<style type="text/css">
	.st0{fill:#FFFFFF;}
</style>
<path class="st0" d="M358.6,252.4c18.1,0,32.2-14.1,32.2-32.1c0-18.3-14.1-32.3-32.4-32.3c-18,0-32,14.2-32,32.3
	C326.4,238.3,340.5,252.4,358.6,252.4z"/>
<path class="st0" d="M620.9,8.1H39.1c-12.8,0-23.2,10.4-23.2,23.2v397.5c0,12.8,10.4,23.2,23.2,23.2h581.8c11.7,0,21.4-8.7,23-20
	c0.1-1,0.2-2.1,0.2-3.2V377V31.3C644.1,18.5,633.7,8.1,620.9,8.1z M622.7,431.4c0.9-0.6,1.4-1.6,1.4-2.7
	C624.1,429.8,623.5,430.8,622.7,431.4z M624.1,352.8L516.4,222.4C473,274,430,325.1,386.6,376.7c-18.8-22.4-37.4-44.4-56.4-66.9
	c-2.6,3-4.4,5.1-6.2,7.3c-32.2,38.3-64.3,76.4-96.3,114.8h-0.2H39.1c-1.8,0-3.2-1.4-3.2-3.2V31.3c0-1.8,1.4-3.2,3.2-3.2h581.8
	c1.8,0,3.2,1.4,3.2,3.2V352.8z"/>
</svg>
