<?xml version="1.0" encoding="utf-8"?>
<!-- Generator: Adobe Illustrator 24.1.1, SVG Export Plug-In . SVG Version: 6.00 Build 0)  -->
<svg version="1.1" id="Layer_1" xmlns="http://www.w3.org/2000/svg" xmlns:xlink="http://www.w3.org/1999/xlink" x="0px" y="0px"
	 viewBox="0 0 85.1 85" style="enable-background:new 0 0 85.1 85;" xml:space="preserve">
<style type="text/css">
	.st0{fill:#FFFFFF;}
</style>
<g>
	<path class="st0" d="M10.1,1.7c18.5,0,37.1,0,55.6,0c0.1,0,0.2,0.1,0.3,0.1C67.1,2,68,2.4,68.9,3c2,1.4,3.8,3,5.5,4.7
		c2.4,2.4,4.8,4.8,6.9,7.4c1.4,1.7,2,3.6,2,5.8c0,17.5,0,35,0,52.5c0,0.9-0.1,1.8-0.3,2.7c-1,3.6-3.2,5.8-6.8,6.8
		c-0.4,0.1-0.9,0.2-1.3,0.3c-21.6,0-43.2,0-64.8,0c-0.6-0.1-1.1-0.3-1.7-0.4c-4-1.2-6.8-4.8-6.8-9.2c0-20.8,0-41.7,0-62.5
		c0-0.7,0-1.3,0.2-2C2.8,5.5,5.1,3,8.9,2C9.3,1.9,9.7,1.8,10.1,1.7z M70.5,74.9c0.4,0,0.8,0,1.2-0.1c1.5-0.5,2.3-1.6,2.3-3.2
		c0-5.4,0-5.4,0-10.8c0-4.9,0-9.9,0-14.8c0-0.8-0.2-1.5-0.7-2.2c-0.7-0.9-1.6-1.3-2.7-1.3l-56.1,0c-2.1,0-3.4,1.3-3.4,3.4
		c0,10.3,0,15.2,0,25.5c0,2.2,1.3,3.5,3.5,3.5L70.5,74.9z M61,33.1c0.4,0,0.7,0,1.1-0.1c1.6-0.4,2.5-1.6,2.5-3.3
		c0-7.1,0-11.1,0-18.2c0-1.9-1.2-3.5-3.5-3.5C47.7,8,34.3,8,20.9,8c-0.4,0-0.8,0-1.2,0.1c-1.5,0.4-2.3,1.6-2.3,3.3
		c0,7.2,0,11.1,0,18.3c0,0.4,0.1,0.9,0.2,1.2c0.4,1.4,1.6,2.2,3.3,2.2L61,33.1z"/>
	<path class="st0" d="M48.8,18.9c0-3.4,0-3.7,0-7.1c0-0.6,0-0.6,0.6-0.6c2.7,0,5.5,0,8.2,0c0.4,0,0.6,0.1,0.6,0.6c0,7,0,10.7,0,17.7
		c0,0.4-0.1,0.5-0.5,0.5c-2.8,0-5.5,0-8.3,0c-0.5,0-0.6-0.1-0.5-0.6C48.8,25.9,48.8,22.4,48.8,18.9z"/>
</g>
</svg>
