<?xml version="1.0" encoding="utf-8"?>
<!-- Generator: Adobe Illustrator 24.1.1, SVG Export Plug-In . SVG Version: 6.00 Build 0)  -->
<svg version="1.1" id="Layer_5" xmlns="http://www.w3.org/2000/svg" xmlns:xlink="http://www.w3.org/1999/xlink" x="0px" y="0px"
	 viewBox="0 0 67.7 67.9" style="enable-background:new 0 0 67.7 67.9;" xml:space="preserve">
<style type="text/css">
	.st0{fill:#FFFFFF;}
</style>
<path class="st0" d="M35,51.5c1.9-2.6,5.6-3.7,8.5-2s3.8,5.5,2.1,8.3c-1.9,2.6-5.6,3.7-8.5,2C34.3,57.9,33.4,54.6,35,51.5L35,51.5z"
	/>
<path class="st0" d="M33.7,37.2c1.2-2,4.1-3.4,6.1-2.5s3.5,4,2.5,5.9c-0.9,1.9-4.1,3.4-6.1,2.5c-0.4-0.1-0.5-0.3-0.7-0.5
	C33.4,41.4,32.7,39.1,33.7,37.2z"/>
<path class="st0" d="M29.4,26c0.9-1.3,2.8-1.9,4.2-1c1.4,0.9,1.9,2.7,1.2,3.9l0,0c-0.7,1.2-2.8,1.9-4,1.2l0,0
	C29.2,29.4,28.7,27.6,29.4,26z"/>
<path class="st0" d="M62.2,2c-1.4,4.1-3.5,8-5.9,11.8C48,25,46.4,25.8,41.7,29.7c1.9,1.7,3.9,3.9,5.5,6c0.6,0.8,1.3,1.7,1.8,2.8
	c1.9-2.5,13.3-15,13.7-24c-0.6,13-7.8,22.6-12.6,26.3c1.6,3.6,1.8,6.1,1.8,10v2C63.3,44.4,74.9,28.4,62.2,2z"/>
<path class="st0" d="M26.1,54.7c0,0,4.3-13.6,0.3-20.4c-4.2-6.1-9.5-11.8-14.3-17.6C9.7,12.7,8,8.6,6.5,4.4
	c-18.8,35.2,7.9,54,19.3,60l0,0C25.9,52,5.5,40,5.8,17.8C9.2,38,22.1,47.3,26.1,54.7L26.1,54.7"/>
</svg>
