<?xml version="1.0" encoding="utf-8"?>
<!-- Generator: Adobe Illustrator 24.1.1, SVG Export Plug-In . SVG Version: 6.00 Build 0)  -->
<svg version="1.1" id="Layer_5" xmlns="http://www.w3.org/2000/svg" xmlns:xlink="http://www.w3.org/1999/xlink" x="0px" y="0px"
	 viewBox="0 0 67.7 67.9" style="enable-background:new 0 0 67.7 67.9;" xml:space="preserve">
<style type="text/css">
	.st0{fill:#FFFFFF;}
</style>
<path class="st0" d="M18.6,39.6c-0.3-0.3-0.5-0.5-0.8-0.8c-0.8-0.8-1.6-1.7-2.6-2.4c0,0,0,0,0,0c0,0,0.1-0.1,0.1-0.1
	c1.5-1.4,3-2.9,4.4-4.4l0.2-0.2l0.2,0.2c0.7,0.7,1.4,1.4,2.1,2.1c1.4,1.4,2.8,2.8,4.3,4.2l0.3,0.3c0.5,0.5,0.9,0.9,1.5,0.9
	s1-0.4,1.5-0.9l0.3-0.4c1.4-1.4,2.8-2.8,4.3-4.3c4.2-4.2,8.6-8.6,12.8-12.9c0,0,0.1-0.1,0.1-0.1c0,0,4.7,4.7,4.7,4.7
	c-7.8,7.8-15.8,15.8-23.8,23.7L18.6,39.6z"/>
<path class="st0" d="M33.8,66.8C15.7,66.8,0.9,52,0.9,33.9S15.7,1,33.8,1s32.9,14.8,32.9,32.9S52,66.8,33.8,66.8z M33.8,5.6
	C18.2,5.6,5.5,18.3,5.5,33.8c0,15.6,12.7,28.3,28.3,28.3c15.6,0,28.3-12.7,28.3-28.2C62.2,18.3,49.5,5.6,33.8,5.6z"/>
</svg>
