<svg id="Layer_1" data-name="Layer 1" xmlns="http://www.w3.org/2000/svg" viewBox="0 0 80.19 74.55"><defs><style>.cls-1{fill:#fff;}</style></defs><path class="cls-1" d="M162.29,410.14q7.2,7.2,14.42,14.39c3.12,3.11,3.27,4.19.6,7.6a53.76,53.76,0,0,1-4,4.42c-6.28,6.37-12.54,12.76-18.91,19.05-2.52,2.49-4.92,5.81-9.28,3.35a.48.48,0,0,0-.45,0c-3.74,2.69-5.7-.5-7.84-2.55-8.74-8.35-17.39-16.8-26.09-25.2-2.38-2.29-4.91-4.44-7.19-6.83-3.08-3.25-4.88-7.13-4.51-11.73.53-6.62,1-13.25,1.85-19.83.47-3.81,1.7-4.85,5.43-5.27,6.72-.77,13.44-1.48,20.17-2,3.25-.25,6.52,0,9.78,0,2.44,0,3.83,1.73,5.32,3.27q9.51,9.81,19,19.65l.78.8.12.11Zm-36-22.52c-6.06.74-12,1.37-17.81,2.21-4.13.59-5,1.4-5.56,5.68-.62,4.76-.76,9.58-1.28,14.36-.65,5.95,1.53,10.56,5.78,14.61,10.07,9.57,20,19.32,29.92,29,1,.92,2,1.77,2.86,2.75,1.33,1.48,2.46,1.19,3.73-.1,8.11-8.26,16.29-16.45,24.33-24.78,2.6-2.69,2.43-2.86-.22-5.57Q155,412.49,142,399.19c-2.54-2.6-4.94-5.35-7.49-7.94A11.35,11.35,0,0,0,126.3,387.62Zm47.35,41.06a41.43,41.43,0,0,1-3.08,4.09c-6.81,7-13.69,13.94-20.56,20.9-.69.71-1.46,1.35-2.08,2.12-.22.28-.12.82-.16,1.24a7.36,7.36,0,0,0,1.33-.2,2.34,2.34,0,0,0,.78-.6q13-13,25.91-26.08c1.37-1.37.66-2.3-.36-3.31-3.89-3.84-7.82-7.64-11.65-11.54-8-8.16-15.92-16.41-23.93-24.55-1.06-1.08-2-2.8-4-2a33.78,33.78,0,0,0,2.6,3.33c10.82,11,21.68,21.87,32.5,32.84A31.93,31.93,0,0,1,173.65,428.68Z" transform="translate(-99 -385.43)"/><path class="cls-1" d="M116.59,398.09c-.08,2.83-3.16,5.82-5.78,5.61a4.37,4.37,0,0,1-3.93-4.76,5.69,5.69,0,0,1,5.42-5.32A4.48,4.48,0,0,1,116.59,398.09ZM111.34,402a31.76,31.76,0,0,0,2.44-4c.08-.19-1.63-1.56-1.87-1.41a6.74,6.74,0,0,0-2.41,2.65C109.31,399.59,110.4,400.6,111.34,402Z" transform="translate(-99 -385.43)"/><path class="cls-1" d="M125.52,396.64l-3.18-.67c.88-2.26,2.81-1.08,4.27-1.23A22.19,22.19,0,0,1,131,395c.18,0,.44.47.45.72a.76.76,0,0,1-.5.59C129.47,396.43,128,396.49,125.52,396.64Z" transform="translate(-99 -385.43)"/><path class="cls-1" d="M142.73,447a8.81,8.81,0,0,1,1.5,0,1,1,0,0,1,.68.58c.06.2-.17.71-.33.73-1.93.32-3.86.61-5.79.78-.27,0-.6-.6-.9-.93.32-.29.6-.76,1-.82C140,447.12,141.14,447.08,142.73,447Z" transform="translate(-99 -385.43)"/><path class="cls-1" d="M129.17,399.78a9.53,9.53,0,0,1-1.48-.24c-.26-.08-.44-.38-.67-.58.23-.21.44-.57.7-.61a33.25,33.25,0,0,1,3.85-.51c.29,0,.61.51.92.78-.31.29-.58.75-.94.84A16.37,16.37,0,0,1,129.17,399.78Z" transform="translate(-99 -385.43)"/><path class="cls-1" d="M143.88,451.12a14.86,14.86,0,0,1-2.49,1c-.24.05-.59-.51-.89-.79a10.5,10.5,0,0,1,1.8-1C142.55,450.22,143,450.64,143.88,451.12Z" transform="translate(-99 -385.43)"/></svg>