<?xml version="1.0" encoding="utf-8"?>
<!-- Generator: Adobe Illustrator 24.1.1, SVG Export Plug-In . SVG Version: 6.00 Build 0)  -->
<svg version="1.1" id="Layer_1" xmlns="http://www.w3.org/2000/svg" xmlns:xlink="http://www.w3.org/1999/xlink" x="0px" y="0px"
	 viewBox="0 0 80.2 74.6" style="enable-background:new 0 0 80.2 74.6;" xml:space="preserve">
<style type="text/css">
	.st0{fill:#FFFFFF;}
</style>
<path class="st0" d="M58.6,29c3.9,3.9,7.6,7.6,11.5,11.5c2.5,2.5,2.6,3.3,0.5,6.1c-1,1.2-2,2.4-3.2,3.5c-5,5.1-10,10.2-15.1,15.2
	c-2,2-4,4.6-7.4,2.7c-0.1-0.1-0.3-0.1-0.4,0c-2.9,2.1-4.5-0.4-6.3-2c-7-6.6-13.9-13.5-20.8-20.2c-1.9-1.8-4-3.6-5.7-5.4
	c-2.5-2.6-4-5.7-3.6-9.4c0.4-5.3,0.7-10.5,1.5-15.8c0.4-3,1.3-3.9,4.3-4.1c5.3-0.6,10.7-1.2,16.1-1.7c2.6-0.2,5.3,0,7.8,0
	c1.9,0,3,1.4,4.2,2.6c5.1,5.3,10.1,10.5,15.2,15.7l0.6,0.6l0.1,0.1L58.6,29z M29.9,10.9c-4.9,0.6-9.6,1.1-14.3,1.8
	c-3.2,0.5-4,1.1-4.4,4.5c-0.5,3.8-0.6,7.6-1,11.4c-0.6,4.8,1.2,8.5,4.6,11.7c8,7.6,15.9,15.5,24,23.2c0.8,0.7,1.6,1.4,2.3,2.2
	c1.1,1.2,1.9,0.9,2.9-0.1c6.5-6.6,13-13.2,19.4-19.8c2.1-2.1,1.9-2.3-0.2-4.4c-6.9-7.1-13.9-14.2-20.8-21.3c-2-2.1-4-4.2-6-6.4
	C34.8,12,32.4,11,29.9,10.9L29.9,10.9z M67.7,43.8c-0.7,1.1-1.6,2.2-2.5,3.2c-5.4,5.6-11,11.1-16.4,16.7c-0.6,0.6-1.2,1.1-1.7,1.7
	c-0.2,0.2-0.1,0.6-0.1,1c0.4,0,0.7-0.1,1.1-0.2c0.3-0.1,0.5-0.3,0.6-0.5c6.9-6.9,13.8-13.9,20.7-20.8c1.1-1.1,0.6-1.8-0.3-2.7
	c-3.1-3-6.3-6.1-9.3-9.2C53.6,26.5,47.3,20,40.8,13.4c-0.8-0.8-1.6-2.2-3.2-1.6c0.6,0.9,1.3,1.8,2.1,2.7c8.7,8.8,17.3,17.5,26,26.3
	C66.4,41.7,67.1,42.7,67.7,43.8L67.7,43.8z"/>
<path class="st0" d="M22.1,19.3c-0.1,2.3-2.5,4.6-4.6,4.5c-1.9-0.2-3.3-1.8-3.1-3.8c0.2-2.3,2-4.1,4.3-4.2
	C20.6,15.8,22.1,17.4,22.1,19.3z M17.9,22.5c0.7-1,1.4-2.1,1.9-3.2c0.1-0.2-1.3-1.3-1.5-1.1c-0.8,0.6-1.5,1.3-1.9,2.1
	C16.3,20.5,17.2,21.3,17.9,22.5z"/>
<path class="st0" d="M29.2,18.2l-2.6-0.6c0.7-1.8,2.2-0.8,3.4-1c1.2-0.1,2.3,0,3.5,0.2c0.2,0,0.4,0.4,0.4,0.6c0,0.2-0.2,0.4-0.4,0.5
	C32.4,18,31.3,18,29.2,18.2z"/>
<path class="st0" d="M43,58.4c0.4,0,0.8,0,1.2,0c0.3,0.1,0.5,0.3,0.6,0.5s-0.1,0.6-0.3,0.6c-1.6,0.3-3,0.5-4.6,0.6
	c-0.2,0-0.5-0.5-0.7-0.7c0.3-0.3,0.5-0.6,0.8-0.6C40.8,58.6,41.8,58.5,43,58.4z"/>
<path class="st0" d="M32.2,20.7c-0.4,0-0.8-0.1-1.2-0.2c-0.2-0.1-0.4-0.3-0.6-0.5c0.2-0.2,0.4-0.5,0.6-0.5c1-0.2,2-0.4,3-0.4
	c0.3,0,0.5,0.4,0.7,0.6c-0.3,0.3-0.5,0.6-0.7,0.6C33.5,20.6,32.8,20.6,32.2,20.7z"/>
<path class="st0" d="M43.9,61.7c-0.6,0.4-1.3,0.6-2,0.8c-0.2,0-0.5-0.4-0.7-0.6c0.5-0.3,0.9-0.6,1.5-0.8
	C42.9,61,43.2,61.3,43.9,61.7z"/>
</svg>
