<svg id="Layer_1" data-name="Layer 1" xmlns="http://www.w3.org/2000/svg" viewBox="0 0 83.09 85.72"><defs><style>.cls-1{fill:#fff;}</style></defs><path class="cls-1" d="M145.72,68.39c0,3.66,0,7.32,0,11,0,4.31,0,4.36,4.46,4.28,6.27-.12,12.54-.31,18.8-.46,1.49,0,3,0,4.46,0s2.64.63,2.64,2.27c0,5.64.21,11.3-.23,16.91-.27,3.44-1,3.65-4.62,3.67-6.77.05-13.53,0-20.3,0-5,0-4.72-.34-4.68,5,.05,6.16.12,12.31.16,18.47,0,4.58-.7,5.5-5,6.59-5.6,1.45-11.14.6-16.68-.38-2.11-.37-2.28-2-2.27-3.8,0-6.32.08-12.64,0-19s.94-5.75-5.84-5.82c-6.43-.06-12.87-.09-19.3-.24-3-.06-3.65-.38-3.86-3.33-.42-5.78-.55-11.61-.48-17.41,0-2.75.79-3.19,3.91-3.22,6.27-.07,12.54,0,18.82,0,1.15,0,2.31,0,3.46,0,3.26-.1,3.32-.1,3.39-3.3.13-6.49.27-13,.26-19.46,0-7.65,1-8.95,8.77-9a72.72,72.72,0,0,1,10.81,1c3.07.44,3.22.77,3.31,3.84.07,2.16,0,4.33,0,6.49v6Zm-1.49,1.14h0c0-4.16,0-8.31,0-12.47,0-1.41-.12-2.68-1.88-3-4.73-.73-9.45-1.52-14.22-.27-3.11.81-3.26.85-3.23,3.95,0,3.82.24,7.64.32,11.46.1,4.32.12,8.65.22,13,0,2-.78,3.13-2.91,3-1.15,0-2.31,0-3.46,0-6.76.17-13.51.38-20.27.5-1.75,0-2.84.48-2.78,2.51.13,4,.16,8,.26,12,0,2,1,2.92,3.12,2.86,4.45-.13,8.9,0,13.35,0,3.14,0,6.27-.07,9.4,0s3.75.73,3.88,3.81c0,1,0,2-.05,3-.11,6.32-.26,12.63-.31,19,0,3.19.1,3.38,3.18,3.87a57.24,57.24,0,0,0,8.35.86c5.6.08,6.06-.57,6-6.23,0-6.82,0-13.63.14-20.45,0-3,.25-3.1,3-3.26,1-.06,2,0,3,0q9.88,0,19.78,0c4.62,0,4.88,0,5.24-4.39.32-3.94,0-7.93-.09-11.89,0-1.65-.82-2.41-2.48-2.3-1,.06-2,0-3,0-6.93,0-13.85,0-20.78-.07-3.75,0-3.79-.09-3.85-4S144.23,73.35,144.23,69.53Z" transform="translate(-93.04 -51.12)"/></svg>