<svg id="Layer_1" data-name="Layer 1" xmlns="http://www.w3.org/2000/svg" viewBox="0 0 60.63 79.67"><defs><style>.cls-1{fill:#fff;}</style></defs><path class="cls-1" d="M117.13,223.82c.84-2.65,1.49-5.37,2.57-7.92.91-2.17,2.11-2.07,3.42,0,.09.14.17.29.25.43l3.26,5.16c1-1.66,2-3.31,3-5,.88-1.47,2-1.55,3.26-.52a6.44,6.44,0,0,1,1,1.11c1.05,1.4,2,2.09,3.41.24s3-1.73,4.28.28c1,1.52,1.74.9,2.59-.11a1.86,1.86,0,0,1,3-.17,54.89,54.89,0,0,1,4.83,4.94,2.7,2.7,0,0,1,.06,2.57c-.36.49-1.7.5-2.49.29a5.09,5.09,0,0,1-1.92-1.5c-1-1-1.9-1.06-2.88.06-1.45,1.68-2.87,1.38-4-.32-.85-1.24-1.58-2.16-3-.58s-2.83,1.46-4.14-.15-2.14-.91-2.95.5a34.22,34.22,0,0,1-2.09,3.36c-1.78,2.41-2.88,2.39-4.32-.16-.88-1.57-1.51-3.29-2.34-4.9-.38-.74-1.06-.82-1.32.07-.41,1.42-.55,2.93-1,4.34-.15.5-.85.84-1.29,1.26a4.27,4.27,0,0,1-.6-1.21,13.07,13.07,0,0,1,0-2Z" transform="translate(-108.8 -214.31)"/><path class="cls-1" d="M144.68,290.73c-4.77,0-9.54,0-14.31,0a15.84,15.84,0,0,1-3.41-.48c-.42-.09-.74-.59-1.11-.9.39-.44.71-1.17,1.17-1.26a76.4,76.4,0,0,1,7.76-1.37c7-.74,14.08-1.43,21.13-2a88.51,88.51,0,0,1,9.36-.12,8,8,0,0,1,3.26,1,1.57,1.57,0,0,1,.07,2.81,14.07,14.07,0,0,1-4.7,1.32c-6.4.41-12.81.62-19.21.91Z" transform="translate(-108.8 -214.31)"/><path class="cls-1" d="M155.18,245.14c-6.43-.58-11.35-1.12-16.28-1.44-3.76-.23-7.53-.17-11.3-.27a5.9,5.9,0,0,1-1.93-.28,1.62,1.62,0,0,1-.91-1c-.06-.39.3-1.15.6-1.22,3-.68,6.06-1.71,9.1-1.75a112.15,112.15,0,0,1,13.8,1c4.8.53,9.52.59,14.18-1,1.29-.43,3.09-1.27,3.79.77s-.73,3.39-2.33,3.78C160.58,244.48,157.14,244.83,155.18,245.14Z" transform="translate(-108.8 -214.31)"/><path class="cls-1" d="M147.64,259.57q-9.88-.4-19.75-.81a7.46,7.46,0,0,1-1.94-.29c-.23-.07-.44-.5-.48-.8s.12-.71.31-.79a6.07,6.07,0,0,1,1.87-.55c3.45-.28,6.9-.44,10.34-.74,8.2-.72,16.38-1.49,24.57-2.26.65-.06,1.36-.54,1.91-.39a17.43,17.43,0,0,1,2.85,1.39c-.46.82-.73,2-1.42,2.37a16.67,16.67,0,0,1-5.47,2.08c-4.23.57-8.51.75-12.77,1.09Z" transform="translate(-108.8 -214.31)"/><path class="cls-1" d="M140.54,274.63c-4.29,0-8.57,0-12.86,0a9.92,9.92,0,0,1-2.44-.27c-.4-.1-.69-.61-1-.94.31-.31.56-.8.92-.88a21.7,21.7,0,0,1,3.4-.55c6.08-.45,12.16-.82,18.24-1.3,4.1-.33,8.18-.91,12.29-1.15a19.87,19.87,0,0,1,5.28.71c.41.09.89,1,.87,1.57a2.11,2.11,0,0,1-1,1.48,6.41,6.41,0,0,1-2.4.47c-7.07.46-14.14.89-21.21,1.33Z" transform="translate(-108.8 -214.31)"/><path class="cls-1" d="M115.18,235.57a11.21,11.21,0,0,1,1.35-.24c2.28-.25,2.87.2,3.08,2.48a23.64,23.64,0,0,1,0,3.47c-.3,5.73-3.07,7.69-8.45,5.85a3.77,3.77,0,0,1-1.89-2,10.41,10.41,0,0,1-.43-3.41C108.65,235.91,108.73,235.85,115.18,235.57Zm.73,5a4.21,4.21,0,0,0-.32-1.77c-.29-.44-1-.57-1.58-.83a9.2,9.2,0,0,0-1,3c0,.79.79,1.57,1.23,2.36a6,6,0,0,0,1.37-1.1A4.3,4.3,0,0,0,115.91,240.61Z" transform="translate(-108.8 -214.31)"/><path class="cls-1" d="M119.08,257.27a18.92,18.92,0,0,0,1.23,3.46c.81,1.38.32,2.21-.83,2.82a10.65,10.65,0,0,1-2.78,1,6.29,6.29,0,0,1-7-3.43,5.55,5.55,0,0,1,.55-6.49,7.69,7.69,0,0,1,7.66-2.19C120.34,253.36,119.32,255.44,119.08,257.27ZM117.37,259c-.84-1.36-1.24-2.78-2.14-3.28-1.14-.63-3,1.25-2.79,2.64s1.16,2.5,2.68,2.33C115.8,260.66,116.4,259.8,117.37,259Z" transform="translate(-108.8 -214.31)"/><path class="cls-1" d="M108.92,274.24c0-2.15-.16-4.42,2.26-5.51,1.95-.88,7.36,0,8.42,1.41a2.77,2.77,0,0,1,.35,1.77,25.79,25.79,0,0,1-.62,4.39,5.81,5.81,0,0,1-7.16,4.25C109.63,279.94,108.89,278.52,108.92,274.24Zm5.6,2.56c1.81,0,2.93-1,2.85-2.58-.09-1.76-1.45-2-2.73-2.19-1.94-.25-2,1.18-2,2.55S113,276.86,114.52,276.8Z" transform="translate(-108.8 -214.31)"/><path class="cls-1" d="M115.46,293.91c-5.65,0-6.51-1-5.51-6.63.52-2.92,1.4-3.63,4.33-3.36a20.34,20.34,0,0,1,2.88.56c4.27,1,5.59,3.29,4.21,7.57a3.18,3.18,0,0,1-2,1.78A16.88,16.88,0,0,1,115.46,293.91Zm1.48-1.2c.26-.21,1.49-.67,1.67-1.4.57-2.28-.6-3.39-3.24-3.61-1.28-.11-2.23.05-2.34,1.64C112.87,291.57,113.68,292.48,116.94,292.71Z" transform="translate(-108.8 -214.31)"/></svg>