<?xml version="1.0" encoding="utf-8"?>
<!-- Generator: Adobe Illustrator 24.1.1, SVG Export Plug-In . SVG Version: 6.00 Build 0)  -->
<svg version="1.1" id="Layer_1" xmlns="http://www.w3.org/2000/svg" xmlns:xlink="http://www.w3.org/1999/xlink" x="0px" y="0px"
	 viewBox="0 0 83.1 85.7" style="enable-background:new 0 0 83.1 85.7;" xml:space="preserve">
<style type="text/css">
	.st0{fill:#FFFFFF;}
</style>
<path class="st0" d="M84.9,44.9c-2.2-1.2-4.6-2.4-7.3-3.1c-0.6-0.2-1.1-0.4-1.7-0.6c-0.7-0.3-1.4-0.6-2.1-0.8
	c-0.4-0.1-0.8-0.3-1.3-0.6c-0.6-0.4-1.4-0.8-2.3-0.8c-0.1,0-0.2,0-0.4,0c-0.1,0-0.1,0-0.2,0c-0.3,0-0.7-0.1-1.1-0.2
	c-0.4-0.1-0.8-0.2-1.2-0.2c-0.9,0-1.7-0.1-2.6-0.1c-1.1,0-2.3,0-3.4-0.1c-1.2-0.1-2.4-0.2-3.5-0.4c-1.2-0.2-2.5-0.3-3.7-0.4
	c-3.5-0.3-7-0.5-10.6-0.7c-2.2-0.1-4.5-0.3-6.7-0.5c-0.6,0-1.2-0.1-1.7-0.2c-0.9-0.1-1.8-0.2-2.7-0.2l-0.3,0
	c-3.7,0.1-7.5,0.3-11.1,0.5c-1.2,0.1-2.4,0.2-3.5,0.4c-0.4,0.1-0.8,0.1-1.2,0.2c-0.1,0-0.3,0-0.4,0c-0.5,0-1,0.1-1.5,0.3l-0.6,0.3
	c-2.1,1-4.3,2.1-6.3,3.3c-2.4,1.4-4.8,2.9-7.1,4.4c-1,0.6-2,1.3-3,1.9l-0.3,0.2l0.3,1.1l0.3,0.1c0.1,0,0.3,0.1,0.4,0.1
	c0.3,0.1,0.7,0.2,1.2,0.2c0,0,0.9,0,0.9,0c2-0.1,4-0.2,6-0.5c1-0.1,1.9-0.3,2.9-0.5c1.7-0.3,3.4-0.7,5.1-0.7l0.1,0
	c0.5,0,0.5,0.1,0.5,0.3c0.1,0.5,0.1,0.8,0.1,1.2c0,0.4-0.1,0.7-0.1,1.1c-0.1,0.5-0.1,1.1-0.2,1.6c0,1.1,0,2.1,0,3.2
	c0,0.8,0,1.6,0,2.4c0,0.6,0,1.3-0.1,1.9c0,0.7-0.1,1.4-0.1,2c0,1.7,0,3.3,0,5l0,1.5c0,0.2,0,0.5,0,0.7c0,0.6,0,1.3,0.1,1.9
	c0.1,0.7,0.7,1.5,1.3,1.7c1.1,0.4,2.4,0.8,3.9,1.1c2.4,0.5,4.9,0.9,7.2,1.3c2.4,0.4,5,0.7,8.2,1.1l0.3,0c2,0.2,4.1,0.5,6.1,0.6
	c0.3,0,0.7,0,1,0.1c0.6,0,1.2,0.1,1.8,0.1c1.2,0,2.7-0.1,4.1-1.1c0.7-0.5,1.5-0.8,2.3-1.2c0.6-0.3,1.2-0.5,1.8-0.9
	c3.3-1.7,6.7-3.5,9.9-5.4c1.8-1,3.5-2.1,5.3-3.2c0.8-0.5,1.5-0.9,2.3-1.4l0.3-0.2l0-0.3c0-0.2,0-0.4,0-0.5c0-0.3-0.1-0.6,0-0.9
	c0.1-1.9,0.2-4,0.3-6c0-0.2,0.2-0.5,0.3-0.5c2-1.1,4.1-2.2,6.3-3.4c0.4-0.2,0.7-0.4,1-0.6c0.9-0.5,1.8-1,2.7-1.3
	c1.5-0.4,2.8-1,4-1.9c0.5-0.3,1-0.8,0.9-1.4C86,45.6,85.4,45.2,84.9,44.9z M77.9,48.5l-0.4,0.2c-1.2,0.6-2.4,1.3-3.6,1.9
	c-2,1.1-4,2.1-5.9,3.2c-2.5,1.3-5.1,2.6-7.7,3.8c-0.1,0-0.2,0-0.2-0.1c-2.7-1.7-5-3.1-7.3-4.7c-1-0.7-2.1-1.5-3-2.2l-0.7-0.5
	l2.6-1.1c2.5-1.1,4.9-2.2,7.3-3.3c1.7-0.8,3.4-1.6,5-2.4c1.1-0.5,2.3-1.1,3.4-1.6c0.8-0.4,1.4-0.6,2-0.8c0.2-0.1,0.4-0.1,0.6-0.1
	c0.3,0,0.7,0.1,1.1,0.3c1.5,0.7,3,1.3,4.5,1.9c0.9,0.4,1.9,0.8,2.8,1.2c1.2,0.5,2.3,1,3.5,1.6c0.3,0.1,0.6,0.3,0.9,0.4
	c-1,0.7-2,1.3-3.1,1.5C78.9,47.9,78.4,48.2,77.9,48.5z M45.3,73.5l0,0.7l-2-0.1c-1.9-0.1-3.7-0.3-5.5-0.4c-0.9-0.1-1.8-0.2-2.8-0.2
	c-2.9-0.2-5.9-0.5-8.8-0.9c-2.6-0.4-5.3-1-7.9-1.6L17,70.6c-0.1-0.1-0.3-0.5-0.3-0.6c0.2-2.4,0.1-4.7-0.2-7.5
	c-0.1-0.8-0.1-1.7,0-2.6c0-0.4,0-0.7,0-1.1l0-0.6c0-1.9,0.1-3.7,0.2-5.6c0-0.4,0.1-0.8,0.1-1.2c0-0.5,0.1-1,0.1-1.5
	c0-0.6-0.1-1.3-0.1-1.9c0-0.1,0-0.1,0-0.2c0.1,0,0.2,0,0.3,0c0.3,0,0.6,0,0.9,0c0.3,0,0.7,0,1,0c1.5,0.1,3.1,0.3,4.6,0.5
	c1.5,0.2,2.9,0.3,4.4,0.5c1.5,0.1,2.9,0.3,4.4,0.4c2.1,0.2,4.3,0.4,6.4,0.6c1.5,0.2,3,0.4,4.5,0.7c0.7,0.1,1.4,0.3,2.2,0.4
	c0.5,0.1,0.5,0.2,0.5,0.5c-0.2,2.7-0.3,5.6-0.4,8.5c-0.1,2.8-0.1,5.5-0.1,8.3l0,2.7C45.3,71.8,45.3,72.6,45.3,73.5z M2.1,46.9
	c0.8-0.4,1.7-0.9,2.5-1.3c0.9-0.5,1.7-1,2.6-1.5C8.1,43.5,9,43,9.8,42.5c1.6-0.9,3.2-1.8,4.9-2.6l1.4-0.8c0,0,0,0,0.1,0l0,0
	c0.6,0.1,1.3,0.2,1.9,0.2c1.6,0,3.1-0.3,4.7-0.6l0.2,0c1-0.2,2-0.3,3-0.3l0.7,0c1.2-0.1,2.3-0.1,3.5-0.2c-1.3,0.7-2.6,1.4-4,2
	c-1.2,0.6-2.4,1.3-3.6,1.9c-2.1,1.1-4.1,2.2-6.2,3.3c-0.6,0.3-1.4,0.5-2.1,0.6c-1,0.1-1.9,0.1-2.9,0.1c-1,0-2,0.1-3,0.1
	c-1,0.1-2.1,0.2-3.1,0.4c-0.6,0.1-1.2,0.2-1.8,0.3C3.1,46.8,2.6,46.8,2.1,46.9z M35.4,39l0-0.7l30,2.3c-0.3,0.1-0.5,0.2-0.8,0.3
	c-1,0.4-1.9,0.9-2.9,1.3c-1,0.5-2.1,1-3.1,1.5c-2,0.9-4,1.8-6,2.7l-3.3,1.5c-0.1,0.1-0.3,0.1-0.4,0.2c-0.4,0.2-0.9,0.4-1.3,0.6
	c-0.3,0.2-0.7,0.4-1.2,0.4c-0.3,0-0.6,0-0.9-0.1c-1.1-0.2-2.1-0.4-3.2-0.6c-1.1-0.2-2.1-0.4-3.2-0.6c-1.2-0.2-2.5-0.4-3.9-0.5
	c-0.1,0-0.1,0-0.1,0c0,0,0-0.1,0-0.2c0.2-1.4,0.3-3,0.3-4.9C35.4,41.1,35.4,40.1,35.4,39z M19.1,46l14.8-7.8
	c0.1,2.6-0.2,5.1-0.4,7.4c0,0.5-0.1,0.9-0.1,1.4L19.1,46z M47.6,51.9l10.2,6.8c0.1,0.1,0.3,0.2,0.4,0.2c0.1,0.1,0.3,0.2,0.4,0.3
	c0.5,0.3,1,0.5,1.6,0.5c0.4,0,0.8-0.1,1.2-0.3l0.6-0.3c1.6-0.8,3.2-1.6,4.8-2.4c0.5-0.2,1-0.5,1.6-0.7l-0.2,4.3c0,0.1,0,0.1,0,0.2
	c0,0.2-0.1,0.5,0,0.8c0.3,0.8,0,1.1-1,1.6L67,63c-1.2,0.7-2.5,1.4-3.7,2.1c-1.4,0.8-2.9,1.6-4.4,2.4c-2.9,1.6-5.8,3.2-8.8,4.8
	l-2.5,1.4V51.9z"/>
<path class="st0" d="M24.3,62.9c0,0.2,0,0.4,0,0.6L21,62.9l5.4,6.1l6-4.2l-1.1-0.1c-0.3,0-0.6,0-0.9-0.1l-0.1,0
	c-0.6-0.1-0.8-0.1-0.9-0.4c0-1.1-0.1-2.2-0.1-3.3l-0.1-1.8l-4.2,4.3c0.1-0.1,0.1-0.3,0.1-0.4l0-0.2L25.1,63C25,62.9,25,62.8,25,62.8
	c0-0.1,0.2-0.2,0.3-0.3l0.3-0.3c0.8-0.7,1.5-1.4,2.3-2.1c0,0,0.1-0.1,0.2-0.1l0.2-0.1l0.5-0.2l-4.8-1.4L24,58.5l0.1-0.2l-0.3-0.1
	l0.2,1.6C24,60.9,24.1,61.9,24.3,62.9z M29.9,65.8c0.1-0.1,0.2-0.2,0.3-0.3c0.1-0.1,0.3-0.2,0.4-0.2C30.4,65.5,30.1,65.6,29.9,65.8z
	 M27.5,66.5c-0.3,0.2-0.5,0.4-0.8,0.6l0.2,0.3l-0.3,0.4l-0.1,0l0.2-0.2l-0.2-0.4L26,67.4c0,0-0.1-0.1-0.1-0.1
	c-0.2-0.2-0.3-0.4-0.4-0.5c0,0,0.1-0.1,0.2-0.2l-0.1,0.1l0.3,0.1l0.2,0l2.9-2.3c0,0-0.1,0.1-0.2,0.2c-0.5,0.5-1,1-1.4,1.4l-0.4,0.4
	l0.3,0.3l1.6-1.2C28.5,65.8,28,66.2,27.5,66.5z M28.8,62.6l-0.1,0.7c0,0-3.7,2.9-3.7,2.9c-0.1-0.1-0.2-0.1-0.2-0.1
	c0,0,0-0.1,0.2-0.2c1-0.8,1.9-1.6,2.8-2.4L28.8,62.6z M28.7,61.6c-0.1,0.2-0.2,0.5-0.5,0.7c-0.9,0.8-1.8,1.6-2.7,2.3l-1,0.9
	c0-0.1,0-0.1,0-0.1c0.4-0.4,0.8-0.7,1.2-1c0.3-0.2,0.5-0.4,0.8-0.7C27.2,63,27.9,62.4,28.7,61.6C28.6,61.7,28.7,61.7,28.7,61.6z
	 M28.6,64C28.6,64,28.6,64,28.6,64L28.6,64L28.6,64z M24.2,64.8l-0.3,0.3c-0.1-0.1-0.2-0.2-0.3-0.3l0.1-0.1c0.1-0.1,0.2-0.1,0.3-0.2
	c0.1,0,0.2-0.1,0.3-0.1l-0.5,0.5L24.2,64.8z M25.2,61.4c0.2-0.2,0.4-0.4,0.6-0.6l0.2-0.3l-0.2-0.1c0,0,0,0,0,0c0,0,0,0,0,0l-0.2-0.1
	L24.9,61c-0.2-0.4-0.1-0.8,0.4-1.6l0.5,0.1c0.1,0,0.3,0.1,0.4,0.1l-0.1,0.2l0.2,0.1l-0.2-0.1L26,60.4l0.9-0.7l0.4,0.1L25,62
	C24.9,61.8,24.9,61.7,25.2,61.4z M24.2,63.6c-0.1,0.2-0.3,0.4-0.7,0.6c-0.1,0-0.1,0.1-0.1,0.3l0,0.1c-0.1-0.1-0.1-0.1-0.1-0.2
	c0-0.2,0.3-0.4,0.6-0.6L24.2,63.6z"/>
<g>
	<path class="st0" d="M60.3,19.7c0-0.4,0-0.8-0.5-1c-0.5-0.2-0.7,0.1-1,0.3c-0.6,0.5-1.2,1-1.9,1.5c-1.7,1.1-3.4,2.2-5,3.4
		c-1.9,1.3-3.6,2.9-4.8,4.9c-0.5,0.8-1,1.6-1.5,2.4c0,0,0,0,0,0c0-3.1,0.1-6.2,0.1-9.3c0-0.1,0.2-0.4,0.3-0.4c1,0,2-0.4,2.9-0.8
		c1.2-0.6,2.4-1.1,3.4-2.1c1-1.1,1.6-2.3,2-3.7c0.5-1.5,0.7-3,0.6-4.6c0-0.6-0.5-0.8-1-0.5c-1.1,0.7-2.2,1.3-3.4,1.9
		c-1.1,0.5-2.1,1-3,1.9c-1.2,1.2-2.1,2.4-2.4,4.1c-0.1,0.9-0.1,1.9-0.2,2.8c-0.2,2.1-0.4,4.2-0.6,6.3c0,0.2,0,0.3-0.1,0.3
		c-0.6-1.5-1.1-3-1.8-4.5c-1.2-2.4-3.4-3.6-5.8-4.5c-2-0.7-4.1-1-5.9-2c-0.4-0.2-0.9,0.1-0.9,0.6c0,0.5-0.1,1.1,0.1,1.6
		c0.4,1.4,0.9,2.7,1.5,4.1c0.9,2.4,2.1,4.6,3.9,6.4c1.5,1.6,3.1,3.1,5.1,4c1.1,0.4,2.3,0.7,3.6,1.1c0,0.1,0,0.4,0,0.6
		c0,1.9,0,3.8,0,5.8c0,1.4,0.2,2.8,0.4,4.2c0.1,0.7,0,0.6-0.7,0.7c-1.6,0.1-3.2,0.3-4.7,0.4c-0.1,0-0.2,0-0.3,0.1
		c-0.1,0-0.1,0-0.2,0c-0.6,0.2-1.3,0.3-1.9,0.5c-1.7,0.6-3.3,1.2-4.7,2.3l1.4,0.2c0.3-0.1,0.4-0.2,0.6-0.3c1.8-0.8,3.7-1.3,5.7-1.6
		c0.6,0,1.3-0.1,1.9-0.1c2,0,4.1-0.1,6.1-0.1c1.9,0.1,3.8,0.7,5.5,1.5l1.5-1.2c-2.7-1.2-5.5-2-8.6-1.9c-0.1-3-0.7-5.8-0.4-8.7
		c0.2,0.1,0.3,0.1,0.4,0.1c1.6,0,3.3,0.3,4.9,0c3.1-0.6,5.5-2,7.1-4.8c0.9-1.5,1.3-3.2,1.7-4.9C60.1,24.2,60.4,22,60.3,19.7z
		 M46.1,17.4c0.6-2,2-3.5,3.8-4.4c1.1-0.6,2.3-1.2,3.5-1.7c0.1,0,0.2-0.1,0.4-0.1c-0.2,0.9-0.3,1.8-0.5,2.8
		c-0.2-0.3-0.3-0.5-0.4-0.7c0,0-0.1,0-0.1,0c-0.1,0.9,0.5,1.8-0.2,2.6c-0.4-0.5-0.2-1.3-0.6-1.9c-0.4,1,0.3,2,0.1,3
		c-0.1,0-0.1,0-0.2,0c-0.2-0.7-0.3-1.4-0.5-2c-0.1,0-0.1,0-0.2,0c-0.1,1,0.4,1.9,0,3c-0.2-0.7-0.4-1.3-0.6-1.8c-0.1,0-0.1,0-0.2,0
		c0,0.1,0,0.3,0,0.4c0.1,0.5,0.2,0.9,0.3,1.4c0,0.1,0,0.3-0.1,0.4c-0.1,0-0.1,0-0.2,0c-0.2-0.6-0.4-1.2-0.6-1.7c-0.1,0-0.1,0-0.2,0
		c0,0.1-0.1,0.3,0,0.4c0.1,0.4,0.2,0.9,0.3,1.3c0.1,0.3,0.1,0.3-0.3,0.5c-0.1-0.5-0.3-1-0.4-1.5c-0.1,0-0.1,0-0.2,0
		c-0.2,0.6,0.3,1.3,0,1.9c-0.1,0-0.1,0-0.2,0c-0.1-0.5-0.3-1.1-0.4-1.6c-0.1,0-0.1,0-0.2,0c0,0.5,0.1,1,0.1,1.5c0,0.1,0,0.2,0,0.3
		c-0.1-0.1-0.3-0.1-0.3-0.2c-0.1-0.3-0.2-0.7-0.3-1c-0.1,0-0.1,0-0.2,0c0.1,0.4,0.1,0.7,0.1,1.1c0,0.1,0,0.3,0,0.4
		c-0.1-0.1-0.2-0.2-0.3-0.3c-0.1-0.2-0.1-0.4-0.2-0.6c-0.5,0.3,0.3,1-0.4,1.2c-0.1-0.2-0.1-0.3-0.2-0.5c0,0,0,0-0.1,0
		c0,0.2,0,0.4,0,0.6c-0.2,0-0.5,0-0.8,0C45.8,19.2,45.8,18.3,46.1,17.4z M38.8,30.1c-0.1-0.2-0.3-0.3-0.3-0.5
		c-0.1-1.3-0.2-2.6-0.2-3.9c0.1,0,0.2-0.1,0.2-0.1c0.1,0.2,0.3,0.5,0.3,0.7C38.8,27.6,38.8,28.8,38.8,30.1z M39.8,27.7
		c-0.1,1,0,2,0,3c-0.3,0-0.4-0.1-0.5-0.4c-0.1-1.2-0.2-2.5-0.3-3.8C39.7,26.7,39.9,27.1,39.8,27.7z M40.7,28.5c0,0.9,0,1.7,0,2.7
		c-0.2-0.1-0.3-0.2-0.3-0.3c-0.1-1.2-0.3-2.4-0.4-3.6C40.6,27.6,40.8,28,40.7,28.5z M41.2,30.8c0-0.9-0.1-1.7-0.2-2.7
		c0.4,0.4,0.7,0.7,0.7,1.2c0,0.7,0.1,1.4,0.2,2.2C41.4,31.5,41.2,31.3,41.2,30.8z M42.9,31.7c-0.5,0.1-0.6-0.1-0.7-0.5
		c-0.1-0.6-0.2-1.2-0.2-1.9c0.3,0.4,0.7,0.7,0.8,1.1C43,30.8,42.9,31.3,42.9,31.7z M40.8,26.4c-1-0.7-2.1-1.3-3.2-1.9
		c0,0-0.1,0.1-0.1,0.1c0.1,0.2,0.2,0.3,0.3,0.5c0.1,0.2,0.2,0.4,0.2,0.6c0,1.2,0,2.4,0,3.7c-0.4-0.2-0.6-0.5-0.6-0.9
		c0-0.9,0-1.8,0.1-2.8c0-0.2,0-0.3,0-0.5c-0.1,0-0.1,0-0.2,0c-0.1,1.1-0.1,2.1-0.2,3.2c-0.1,0-0.1,0-0.2,0.1
		c-0.1-0.2-0.2-0.3-0.2-0.5c-0.1-1.1-0.1-2.1-0.2-3.2c0-0.1,0-0.2-0.2-0.3c-0.2,1-0.1,2-0.1,3.1c-0.1,0-0.1,0-0.2,0
		c-0.1-1.3-0.2-2.6-0.3-4c-0.4,1.1-0.2,2.2-0.2,3.3c0,0-0.1,0-0.1,0.1c-0.1-0.2-0.3-0.5-0.3-0.7c-0.1-1.2-0.1-2.3-0.1-3.5
		c0-0.2,0-0.4,0-0.6c-0.1,0-0.1,0-0.2,0c0,1.2,0,2.4,0,3.6c-0.1,0-0.1,0-0.2,0c-0.2-0.2-0.5-0.5-0.5-0.9c0-1.1,0-2.2,0-3.3
		c-0.1,0-0.2,0-0.3,0c0,0.1-0.1,0.3-0.1,0.4c0,0.8,0,1.6-0.1,2.4c-0.1-0.3-0.3-0.5-0.3-0.8c-0.1-0.9-0.1-1.9-0.2-2.9
		c0-0.2-0.1-0.3-0.1-0.5c-0.1,0-0.1,0-0.2,0c0,0.6-0.1,1.2-0.1,1.8c-0.4-0.7-0.2-1.6-0.4-2.4c-0.1,0-0.1,0-0.2,0
		c0,0.3-0.1,0.6-0.1,0.9c0,0-0.1,0-0.1,0c-0.1-0.5-0.1-1-0.2-1.7c-0.1,0.2-0.1,0.3-0.2,0.4c0,0-0.1,0-0.1,0c-0.1-0.5-0.3-1-0.4-1.6
		c1.6,0.5,3.1,0.9,4.6,1.4c1,0.4,2.1,0.8,3,1.3c1.7,0.9,2.7,2.3,3.4,4c0.5,1.4,1,2.8,1.4,4.3c0,0.1,0,0.2,0,0.3
		C42.7,28,41.8,27.1,40.8,26.4z M49.6,34.8c-0.1-0.1-0.4-0.1-0.4-0.2c-0.1-0.3-0.4-0.7,0-1.1c0.2,0.4,0.3,0.8,0.5,1.2
		C49.7,34.7,49.7,34.8,49.6,34.8z M50.1,34.5c-0.6-1-0.6-1.2,0-1.7c0.2,0.6,0.5,1.2,0.7,1.8C50.5,34.7,50.3,34.8,50.1,34.5z
		 M51,34.2c-0.2-0.6-0.5-1.2-0.7-1.8c0.1-0.1,0.3-0.2,0.4-0.4c0.3,0.8,0.6,1.6,0.8,2.3C51.2,34.6,51.1,34.5,51,34.2z M51.8,34
		c-0.2-0.6-0.5-1.3-0.7-1.9c-0.1-0.2,0.1-0.4,0.1-0.6c0.1,0,0.1,0,0.2,0c0.4,0.9,0.7,1.8,1.1,2.7C52.1,34.4,51.9,34.3,51.8,34z
		 M52.9,33.9c-0.1-0.1-0.3-0.1-0.3-0.3c-0.3-0.7-0.6-1.4-0.9-2.1c-0.1-0.1-0.1-0.3-0.2-0.4c0.1-0.2,0.3-0.3,0.5-0.6
		c0.2,0.5,0.3,1,0.5,1.4c0.2,0.5,0.4,1.1,0.6,1.6C53,33.6,52.9,33.8,52.9,33.9z M53.5,33.6c-0.5-1.1-1-2.2-1.5-3.3
		c0.1-0.1,0.2-0.2,0.3-0.5c0.5,1.3,0.9,2.5,1.3,3.7C53.6,33.6,53.6,33.6,53.5,33.6z M58.7,21.5c0,0.2-0.1,0.5-0.1,0.7
		c0,0.4,0.1,0.8,0,1.2c-0.1-0.2-0.2-0.4-0.3-0.6c-0.1,0-0.1,0-0.2,0c0,0.5,0,0.9,0.2,1.4c0,0.1,0.1,0.3,0.1,0.4
		c-0.4,1.8-0.6,3.5-1.4,5.2c-0.1,0.1-0.1,0.2-0.2,0.4c-0.4-1.4-0.9-2.7-1.3-4c-0.3,0.5,0.5,3.6,1.2,4.3c-0.1,0.2-0.3,0.4-0.4,0.6
		c-0.7-1.2-0.7-2.7-1.4-3.8c-0.1,0.1-0.2,0.1-0.1,0.2c0.4,1.3,0.8,2.7,1.2,4c0.1,0.3,0,0.4-0.3,0.5c-0.4-1.2-0.9-2.4-1.3-3.7
		c0,0-0.1,0-0.1,0c0,0.2-0.1,0.3-0.1,0.5c0.2,0.8,0.5,1.6,0.7,2.4c0.1,0.3,0.2,0.6,0.3,0.9c0.2,0.4,0,0.6-0.4,0.8
		c-0.4-1-0.7-1.9-1.1-2.8c-0.1-0.2-0.2-0.5-0.3-0.7c0-0.1-0.1-0.1-0.2-0.1c0,0.1-0.1,0.2-0.1,0.2c0.4,1.2,0.8,2.3,1.2,3.5
		c0,0.1,0,0.3,0,0.4c-0.1,0-0.2,0-0.2,0c-0.4-1-0.8-2.1-1.2-3c-0.2-0.5-0.3-0.9,0.1-1.4c0.5-0.6,0.8-1.3,1.2-2
		c-0.2,0.1-0.3,0-0.4,0.1c-0.5,0.5-1,0.9-1.5,1.5c-1.7,1.9-3.3,3.8-5.4,5.1c-0.5,0.3-0.8,0.8-1.3,1.1c0.2-0.8,0.4-1.6,0.8-2.3
		c1.1-2.4,2.8-4.4,4.8-6.2c2-1.7,4.2-3.2,6.5-4.5c0.4-0.2,0.8-0.5,1.2-0.7C58.8,21.1,58.7,21.3,58.7,21.5z"/>
	<path class="st0" d="M57,29c-0.3-1-0.6-2.1-0.8-3.1C56,26.8,56.5,28.8,57,29z"/>
	<path class="st0" d="M56.6,25.4c0,0.8,0.1,1.7,0.5,2.5c0.1,0,0.1,0,0.2,0c-0.1-0.8-0.3-1.6-0.4-2.5C56.8,25.4,56.7,25.4,56.6,25.4z
		"/>
	<path class="st0" d="M57.1,24.3c0.1,0.7,0.3,1.4,0.4,2.1c0.1,0,0.1,0,0.2,0c0-0.7-0.1-1.4-0.3-2.1C57.3,24.3,57.2,24.3,57.1,24.3z"
		/>
	<path class="st0" d="M58,25.6c0.1,0,0.1,0,0.2,0c-0.1-0.6-0.2-1.3-0.3-1.9c-0.1,0-0.1,0-0.2,0C57.6,24.3,57.7,25,58,25.6z"/>
</g>
</svg>
