<?xml version="1.0" encoding="utf-8"?>
<!-- Generator: Adobe Illustrator 24.1.1, SVG Export Plug-In . SVG Version: 6.00 Build 0)  -->
<svg version="1.1" id="Layer_1" xmlns="http://www.w3.org/2000/svg" xmlns:xlink="http://www.w3.org/1999/xlink" x="0px" y="0px"
	 viewBox="0 0 60.6 79.7" style="enable-background:new 0 0 60.6 79.7;" xml:space="preserve">
<style type="text/css">
	.st0{fill:#FFFFFF;}
</style>
<path class="st0" d="M11.7,13.1c0.7-2.2,1.3-4.5,2.2-6.7c0.8-1.8,1.8-1.8,2.9,0c0.1,0.1,0.1,0.2,0.2,0.4l2.8,4.4
	c0.8-1.4,1.7-2.8,2.5-4.2C23,5.6,24,5.6,25,6.4c0.3,0.3,0.6,0.6,0.8,0.9c0.9,1.2,1.7,1.8,2.9,0.2C30,6,31.3,6.1,32.4,7.8
	c0.8,1.3,1.5,0.8,2.2-0.1C35.1,7,36,6.8,36.8,7.3c0.1,0.1,0.3,0.2,0.4,0.3c1.5,1.3,2.8,2.7,4.1,4.2c0.4,0.7,0.4,1.5,0.1,2.2
	c-0.3,0.4-1.4,0.4-2.1,0.2c-0.6-0.3-1.2-0.7-1.6-1.3c-0.8-0.8-1.6-0.9-2.4,0.1c-1.2,1.4-2.4,1.2-3.4-0.3c-0.7-1.1-1.3-1.8-2.5-0.5
	s-2.4,1.2-3.5-0.1s-1.8-0.8-2.5,0.4c-0.5,1-1.1,1.9-1.8,2.8c-1.5,2-2.4,2-3.7-0.1c-0.7-1.3-1.3-2.8-2-4.2c-0.3-0.6-0.9-0.7-1.1,0.1
	c-0.3,1.2-0.5,2.5-0.8,3.7c-0.1,0.4-0.7,0.7-1.1,1.1c-0.2-0.3-0.4-0.7-0.5-1c0-0.6,0-1.1,0-1.7L11.7,13.1z"/>
<path class="st0" d="M35,69.8c-4,0-8.1,0-12.1,0c-1,0-1.9-0.2-2.9-0.4c-0.4-0.1-0.6-0.5-0.9-0.8c0.3-0.4,0.6-1,1-1.1
	c2.2-0.5,4.4-0.9,6.6-1.2c5.9-0.6,11.9-1.2,17.9-1.7c2.6-0.2,5.3-0.2,7.9-0.1c1,0.1,1.9,0.4,2.8,0.8c0.7,0.3,1,1.1,0.6,1.8
	c-0.1,0.3-0.3,0.5-0.6,0.6c-1.3,0.6-2.6,1-4,1.1C45.9,69.3,40.5,69.4,35,69.8L35,69.8z"/>
<path class="st0" d="M43.9,31.1c-5.4-0.5-9.6-0.9-13.8-1.2c-3.2-0.2-6.4-0.1-9.6-0.2c-0.6,0-1.1-0.1-1.6-0.2
	c-0.4-0.2-0.6-0.5-0.8-0.8c-0.1-0.3,0.3-1,0.5-1c2.5-0.6,5.1-1.4,7.7-1.5c3.9,0,7.8,0.3,11.7,0.8c4.1,0.4,8.1,0.5,12-0.8
	c1.1-0.4,2.6-1.1,3.2,0.7c0.6,1.7-0.6,2.9-2,3.2C48.5,30.6,45.6,30.9,43.9,31.1z"/>
<path class="st0" d="M37.5,43.4c-5.6-0.2-11.2-0.5-16.7-0.7c-0.6,0-1.1-0.1-1.6-0.2c-0.2-0.1-0.4-0.4-0.4-0.7s0.1-0.6,0.3-0.7
	c0.5-0.2,1-0.4,1.6-0.5c2.9-0.2,5.8-0.4,8.8-0.6c6.9-0.6,13.9-1.3,20.8-1.9c0.6-0.1,1.2-0.5,1.6-0.3c0.8,0.3,1.6,0.7,2.4,1.2
	c-0.4,0.7-0.6,1.7-1.2,2c-1.4,0.9-3,1.5-4.6,1.8c-3.6,0.5-7.2,0.6-10.8,0.9L37.5,43.4z"/>
<path class="st0" d="M31.5,56.1c-3.6,0-7.3,0-10.9,0c-0.7,0-1.4-0.1-2.1-0.2c-0.3-0.1-0.6-0.5-0.8-0.8c0.3-0.3,0.5-0.7,0.8-0.7
	c0.9-0.2,1.9-0.4,2.9-0.5c5.2-0.4,10.3-0.7,15.5-1.1c3.5-0.3,6.9-0.8,10.4-1c1.5,0,3,0.2,4.5,0.6c0.3,0.1,0.8,0.8,0.7,1.3
	c-0.1,0.5-0.4,1-0.8,1.3c-0.6,0.3-1.3,0.4-2,0.4c-6,0.4-12,0.8-18,1.1L31.5,56.1z"/>
<path class="st0" d="M10,23c0.4-0.1,0.8-0.2,1.1-0.2c1.9-0.2,2.4,0.2,2.6,2.1c0.1,1,0.1,2,0,2.9c-0.3,4.9-2.6,6.5-7.2,5
	c-0.7-0.3-1.3-0.9-1.6-1.7c-0.3-0.9-0.4-1.9-0.4-2.9C4.5,23.3,4.6,23.3,10,23z M10.7,27.3c0-0.5-0.1-1-0.3-1.5
	c-0.2-0.4-0.8-0.5-1.3-0.7c-0.4,0.8-0.7,1.7-0.8,2.5c0,0.7,0.7,1.3,1,2c0.4-0.3,0.8-0.6,1.2-0.9C10.6,28.2,10.7,27.8,10.7,27.3
	L10.7,27.3z"/>
<path class="st0" d="M13.3,41.4c0.3,1,0.6,2,1,2.9c0.7,1.2,0.3,1.9-0.7,2.4c-0.7,0.4-1.5,0.7-2.4,0.8c-2.4,0.5-4.9-0.7-5.9-2.9
	c-1-1.7-0.9-4,0.5-5.5c1.6-1.8,4.1-2.5,6.5-1.9C14.4,38.1,13.5,39.9,13.3,41.4z M11.9,42.9c-0.7-1.2-1.1-2.4-1.8-2.8
	c-1-0.5-2.5,1.1-2.4,2.2c0.2,1.2,1,2.1,2.3,2C10.6,44.3,11.1,43.6,11.9,42.9z"/>
<path class="st0" d="M4.7,55.8c0-1.8-0.1-3.7,1.9-4.7c1.7-0.7,6.2,0,7.1,1.2c0.3,0.5,0.4,1,0.3,1.5c-0.1,1.3-0.2,2.5-0.5,3.7
	c-0.6,2.6-3.3,4.3-5.9,3.6c0,0-0.1,0-0.1,0C5.3,60.6,4.7,59.4,4.7,55.8z M9.5,58c1.5,0,2.5-0.8,2.4-2.2c-0.1-1.5-1.2-1.7-2.3-1.9
	c-1.6-0.2-1.7,1-1.7,2.2C7.9,57.2,8.2,58,9.5,58z"/>
<path class="st0" d="M10.3,72.5c-4.8,0-5.5-0.8-4.7-5.6c0.4-2.5,1.2-3.1,3.7-2.8c0.8,0.1,1.6,0.3,2.4,0.5c3.6,0.8,4.7,2.8,3.6,6.4
	c-0.3,0.7-0.9,1.3-1.7,1.5C12.5,72.5,11.4,72.6,10.3,72.5z M11.5,71.4c0.2-0.2,1.3-0.6,1.4-1.2c0.5-1.9-0.5-2.9-2.7-3.1
	c-1.1-0.1-1.9,0-2,1.4C8.1,70.5,8.8,71.2,11.5,71.4z"/>
</svg>
