<?xml version="1.0" encoding="utf-8"?>
<!-- Generator: Adobe Illustrator 24.1.1, SVG Export Plug-In . SVG Version: 6.00 Build 0)  -->
<svg version="1.1" id="Layer_1" xmlns="http://www.w3.org/2000/svg" xmlns:xlink="http://www.w3.org/1999/xlink" x="0px" y="0px"
	 viewBox="0 0 83.1 85.7" style="enable-background:new 0 0 83.1 85.7;" xml:space="preserve">
<style type="text/css">
	.st0{fill:#FFFFFF;}
</style>
<path class="st0" d="M46,22.8c0,2.8,0,5.6,0,8.4c0,3.3,0,3.3,3.4,3.3c4.8-0.1,9.5-0.2,14.3-0.3c1.1,0,2.3,0,3.4,0s2,0.5,2,1.7
	c0,4.3,0.2,8.6-0.2,12.9c-0.2,2.6-0.8,2.8-3.5,2.8c-5.2,0-10.3,0-15.4,0c-3.8,0-3.6-0.3-3.6,3.8c0,4.7,0.1,9.4,0.1,14.1
	c0,3.5-0.5,4.2-3.8,5c-4.3,1.1-8.5,0.5-12.7-0.3c-1.6-0.3-1.7-1.5-1.7-2.9c0-4.8,0.1-9.6,0-14.5c-0.1-4.8,0.7-4.4-4.4-4.4
	c-4.9,0-9.8-0.1-14.7-0.2c-2.3,0-2.8-0.3-2.9-2.5C6,45.1,5.9,40.7,5.9,36.3c0-2.1,0.6-2.4,3-2.4c4.8-0.1,9.5,0,14.3,0
	c0.9,0,1.8,0,2.6,0c2.5-0.1,2.5-0.1,2.6-2.5c0.1-4.9,0.2-9.9,0.2-14.8c0-5.8,0.8-6.8,6.7-6.8c2.8,0,5.5,0.3,8.2,0.8
	c2.3,0.3,2.4,0.6,2.5,2.9c0.1,1.6,0,3.3,0,4.9L46,22.8L46,22.8z M44.9,23.6L44.9,23.6c0-3.2,0-6.3,0-9.5c0-1.1-0.1-2-1.4-2.3
	c-3.6-0.6-7.2-1.2-10.8-0.2c-2.4,0.6-2.5,0.6-2.5,3c0,2.9,0.2,5.8,0.2,8.7c0.1,3.3,0.1,6.6,0.2,9.9c0,1.5-0.6,2.4-2.2,2.3
	c-0.9,0-1.8,0-2.6,0c-5.1,0.1-10.3,0.3-15.4,0.4c-1.3,0-2.2,0.4-2.1,1.9c0.1,3,0.1,6.1,0.2,9.1c0,1.5,0.8,2.2,2.4,2.2
	c3.4-0.1,6.8,0,10.2,0c2.4,0,4.8-0.1,7.2,0s2.9,0.6,3,2.9c0,0.8,0,1.5,0,2.3c-0.1,4.8-0.2,9.6-0.2,14.5c0,2.4,0.1,2.6,2.4,2.9
	c2.1,0.4,4.2,0.6,6.4,0.7c4.3,0.1,4.6-0.4,4.6-4.7c0-5.2,0-10.4,0.1-15.6c0-2.3,0.2-2.4,2.3-2.5c0.8,0,1.5,0,2.3,0c5,0,10,0,15,0
	c3.5,0,3.7,0,4-3.3c0.2-3,0-6-0.1-9c0-1.3-0.6-1.8-1.9-1.7c-0.8,0-1.5,0-2.3,0c-5.3,0-10.5,0-15.8-0.1c-2.9,0-2.9-0.1-2.9-3
	S44.9,26.5,44.9,23.6z"/>
<path class="st0" d="M56.1,72c-1.8,0-3.2-1.4-3.2-3.2c0-1.8,1.4-3.2,3.2-3.2c1.8,0,3.2,1.4,3.2,3.2C59.3,70.6,57.9,72,56.1,72z"/>
<path class="st0" d="M65,71.1c-1.3,0-2.3-1-2.3-2.3c0-1.3,1-2.3,2.3-2.3c1.3,0,2.3,1,2.3,2.3C67.3,70.1,66.2,71.1,65,71.1z"/>
<path class="st0" d="M73,69.9c-1.3,0-2.3-1-2.3-2.3c0-1.3,1-2.3,2.3-2.3c1.3,0,2.3,1,2.3,2.3C75.2,68.9,74.2,69.9,73,69.9z"/>
</svg>
