<svg id="Layer_1" data-name="Layer 1" xmlns="http://www.w3.org/2000/svg" viewBox="0 0 85.08 85.02"><defs><style>.cls-1{fill:#fff;}</style></defs><path class="cls-1" d="M-31.14-100.64a1.35,1.35,0,0,1-1.32-1.28v-.33A5.36,5.36,0,0,1-32-104.1Q-29.45-111-26.95-118t5-13.73a5.06,5.06,0,0,1,1.27-2c7.39-7.49,14.92-15,22.39-22.4,8.08-8.07,16.42-16.42,24.8-24.7a15,15,0,0,1,10.86-4.81h.87a14.73,14.73,0,0,1,14.18,12.83,14.64,14.64,0,0,1-3.56,11.92c-.42.42-.85.9-1.29,1.39s-.83.93-1.27,1.36l-48,48a7.46,7.46,0,0,1-2.91,1.76c-4.12,1.24-8.25,2.52-12.38,3.8s-8.2,2.53-12.33,3.78a11.67,11.67,0,0,1-1.67.17Zm13.53-9.18a1.9,1.9,0,0,0,1.79,1.29l.25,0h.16l8.92-2.77.08,0A2.77,2.77,0,0,0-5-113c.39-1.5.7-3.07,1-4.58.16-.82.32-1.64.5-2.45a1.62,1.62,0,0,0-.21-1.48,1.88,1.88,0,0,0-1.57-.63h-3c-2-.08-2.6-.66-2.6-2.7V-128c0-1.58-.66-2.27-2.22-2.3a12.75,12.75,0,0,0-2-.1h-2.38a2,2,0,0,0-2,1.54q-1,2.73-2,5.43c-.67,1.8-1.33,3.6-2,5.43a2.24,2.24,0,0,0,.42,2.54v.17l.52.28,0,0h0A10.42,10.42,0,0,1-17.61-109.82ZM.07-120.4a3.51,3.51,0,0,0-.13,1.05V-118l1.32-.44a3.41,3.41,0,0,0,1.29-.84c10.75-10.65,21.7-21.61,32.3-32.2a11.61,11.61,0,0,0,3.44-8.26A11.62,11.62,0,0,0,34.85-168a11.59,11.59,0,0,0-8.25-3.42,11.32,11.32,0,0,0-7.08,2.45,34.33,34.33,0,0,0-2.89,2.57c-7.39,7.3-14.92,14.83-22.19,22.1-2.33,2.33-4.75,4.65-7.09,6.89l-2.19,1.75,1.18,1.57h.5a1.45,1.45,0,0,1,.29,0,4.2,4.2,0,0,0,.61.06h2.5c1.73.08,2.32.67,2.4,2.45V-128c0,2,1,2.2,2.3,2.2h2a11.9,11.9,0,0,1,1.85.11,2.22,2.22,0,0,1,1.6.65,2.28,2.28,0,0,1,.26,1.72c-.09.44-.19,1-.28,1.46S.17-120.89.07-120.4Zm37.67-62a13.24,13.24,0,0,0-3.59.54c-2.82.81-4.68,2.79-6.48,4.69l-.46.48a1.43,1.43,0,0,0-.37,1.09v.86l.85.13c8.06,1.23,12.63,5.9,14,14.27l.3,1.89,3.78-3.63a12.11,12.11,0,0,0,3.61-8.62,11.66,11.66,0,0,0-11.58-11.7Z" transform="translate(32.46 185.66)"/><path class="cls-1" d="M1.62-133.44a1.31,1.31,0,0,1-1-.42A1.25,1.25,0,0,1,.24-135a3,3,0,0,1,.91-1.58l26.4-26.4a2.53,2.53,0,0,1,1.64-.91,1.54,1.54,0,0,1,1.55,1.47v.16a1.7,1.7,0,0,1-.68,1.26l-.07.05L18-148.85,3.43-134.36A2.71,2.71,0,0,1,1.62-133.44Z" transform="translate(32.46 185.66)"/></svg>