<svg id="Layer_2" data-name="Layer 2" xmlns="http://www.w3.org/2000/svg" viewBox="0 0 76.74 67.29"><defs><style>.cls-1{fill:#fff;}</style></defs><path class="cls-1" d="M56-68.95a17.58,17.58,0,0,1-4.15-.5c-1.53-.25-1.53-1.75-1.53-2.31v-8.19c0-.35,0-.65,0-.91a5.75,5.75,0,0,0,0-.86,10.56,10.56,0,0,0-1.13,0h-.69l-2.67,0c-1.93,0-3.75,0-5.67-.08h0c-1.47,0-2.2-.31-2.33-2.08-.17-2.42-.24-4.9-.21-7.57,0-1.72.84-2.06,2.38-2.07h9.61c.28,0,.56,0,.72,0,0-.17,0-.5,0-.72l0-1.05c0-2.41.09-4.89.09-7.32,0-3.74.79-4.56,4.48-4.58a33,33,0,0,1,4.77.44c1.7.24,2,.72,2,2.33v5.3h0v4.74a5.44,5.44,0,0,0,.06,1.16s0,0,.08,0H63c1.84,0,3.72-.06,5.52-.12L71-93.52H73a1.66,1.66,0,0,1,1.84,1.7c0,.59,0,1.18,0,1.77,0,1.82,0,3.71-.11,5.57-.17,2-1,2.22-2.7,2.23H62.61c-.13,0-.45,0-.62,0a9.68,9.68,0,0,0,0,1v.43c0,1.44,0,2.87,0,4.31,0,1.22,0,2.45,0,3.69,0,2.31-.5,3-2.68,3.52A17.75,17.75,0,0,1,56-68.95ZM43-85l1.92,0h5.91c1.68,0,2.3.61,2.37,2.31v1.32l0,1.73c0,2.15-.09,4.3-.1,6.46a4.52,4.52,0,0,0,0,.87l.74.11a25.79,25.79,0,0,0,3.5.36c.46,0,1.48,0,1.68-.21a4.05,4.05,0,0,0,.19-1.77c0-2.9,0-5.89.06-8.83,0-1.7.46-2,1.95-2.09h9.86a5.5,5.5,0,0,0,1.38-.08,5,5,0,0,0,.18-1.17,31,31,0,0,0,0-3.34c0-.58,0-1.15,0-1.73v-.11a.21.21,0,0,0-.15-.21l-.08,0H62c-2,0-2.32-.32-2.36-2.41,0-1,0-2,0-2.91,0-.69,0-1.38,0-2.07v-5.38a1.61,1.61,0,0,0,0-.54h0a.34.34,0,0,0-.18-.06,14,14,0,0,0-3.2-.37,14,14,0,0,0-2.67.26,4.11,4.11,0,0,0-.82.25c0,.07,0,.53,0,.75,0,1,0,1.9.07,2.84,0,.7.06,1.4.07,2.1,0,.93,0,1.86.05,2.8s0,1.86,0,2.79c0,1.82-1.27,2-1.81,2H49.55l-2.92.07c-1.93.06-3.86.11-5.8.14-.39,0-.47.07-.47.07a.55.55,0,0,0,0,.3c0,1.08,0,2.16.07,3.24,0,.65,0,1.29,0,1.93,0,.42,0,.55.58.55Z" transform="translate(0.69 134.93)"/><path class="cls-1" d="M10.61-67.64A3.47,3.47,0,0,1,7.15-71.1a3.47,3.47,0,0,1,3.46-3.46,3.46,3.46,0,0,1,3.46,3.46A3.46,3.46,0,0,1,10.61-67.64Z" transform="translate(0.69 134.93)"/><circle class="cls-1" cx="20.76" cy="56.25" r="4.93"/><path class="cls-1" d="M36.93-79.45c-.79,0-4.84-.13-7.27-2.73a18.58,18.58,0,0,1-3.45-6,12.47,12.47,0,0,1-5.8,1.43c-4.53,0-7.74-2.31-10.43-7.47-1.66-.22-7.88-1.43-10-7.31-2.52-6.89,3.08-12,4.63-13.19-.35-1.81-1.19-8.45,4-12.93a13.32,13.32,0,0,1,8.67-3.22,13.32,13.32,0,0,1,6.27,1.58c1.12-1.45,4.61-5.34,10.17-5.59h.36c5.43,0,9.22,5.47,10.49,7.58a16.24,16.24,0,0,1,9.15-2.91A12.68,12.68,0,0,1,61.07-128c6.11,4.24,6.06,11,5.86,13.15A11.64,11.64,0,0,1,76-103.06a11.29,11.29,0,0,1-2.62,7,1.36,1.36,0,0,1-1,.48H69.74a1,1,0,0,1-1-.93,1,1,0,0,1,.18-.59l2-2.07a7.78,7.78,0,0,0,1.21-4,7.73,7.73,0,0,0-6.57-8l-3.1-.6.52-3a.37.37,0,0,0,0-.11c.19-2,.15-6.89-4.16-9.9a8.87,8.87,0,0,0-5.15-1.55,12.31,12.31,0,0,0-6.77,2.09l-3,4.3-2.42-4.82c-.91-1.74-4-6.3-7.44-6.3h-.19c-4.37.2-7.06,3.79-7.4,4.28l-1.72,2.65-2.65-1.58A9.31,9.31,0,0,0,17.26-127a9.27,9.27,0,0,0-6.11,2.29c-4.18,3.56-2.72,9.36-2.7,9.41L9-113.13l-1.83,1.27c-.22.16-5.43,3.86-3.57,8.93,1.57,4.3,7,4.81,7.09,4.81l1.76.16.82,1.58c2.67,5.23,5,5.67,7.06,5.67h0a8.76,8.76,0,0,0,4.47-1.21l3.67-2.53,1.2,4.34a15,15,0,0,0,2.87,5.29,10.71,10.71,0,0,0,2,1.44c1.28.81,2.61,1.64,3.15,3l.38.93Z" transform="translate(0.69 134.93)"/></svg>