<?xml version="1.0" encoding="utf-8"?>
<!-- Generator: Adobe Illustrator 24.1.1, SVG Export Plug-In . SVG Version: 6.00 Build 0)  -->
<svg version="1.1" id="Layer_5" xmlns="http://www.w3.org/2000/svg" xmlns:xlink="http://www.w3.org/1999/xlink" x="0px" y="0px"
	 viewBox="0 0 67.7 67.9" style="enable-background:new 0 0 67.7 67.9;" xml:space="preserve">
<style type="text/css">
	.st0{fill:#FFFFFF;}
</style>
<g>
	<circle class="st0" cx="14.1" cy="28.6" r="4.8"/>
	<circle class="st0" cx="32.7" cy="14.4" r="4.8"/>
	<circle class="st0" cx="52.1" cy="27.7" r="4.8"/>
	<circle class="st0" cx="45.5" cy="49.5" r="4.8"/>
	<circle class="st0" cx="22" cy="50.6" r="4.8"/>
	<path class="st0" d="M7.6,28.8c0,0,0,0.1,0.2,1.8c0.2,1.7,2.5,3.4,3.9,4.1c1.7,0.9,0.5,3.5,3.1,6.5s3.2,4.2,2.7,4.6
		c-0.5,0.3-3.2,0.8-8.9-5.2S4,28.5,4,28.5s-1.4-7,5.3-14.1S19.5,7.3,20,7.6c0.6,0.4-0.4,2.3-3.5,5.8s-3.6,7.6-4.3,8.3
		c-0.7,0.8-4.3,3.4-4.6,5.4C7.6,27.7,7.6,28.2,7.6,28.8z"/>
	<path class="st0" d="M31.3,8.1c0,0-0.1,0-1.8,0.7c-1.7,0.7-2.6,3.3-2.9,4.9c-0.4,1.8-3.2,1.4-5.4,4.8s-3.2,4.2-3.6,3.8
		c-0.4-0.4-1.7-2.9,2.6-9.9s10.3-7.7,10.3-7.7s6.4-3.2,15,1.3s9.6,7.9,9.4,8.6c-0.2,0.7-2.3,0.2-6.5-1.8s-8.3-1.7-9.2-2.2
		c-0.9-0.5-4.4-3.3-6.4-2.9C32.3,7.8,31.8,8,31.3,8.1z"/>
	<path class="st0" d="M57,23.8c0,0-0.1-0.1-1.2-1.3c-1.1-1.2-4-1.2-5.6-1c-1.8,0.2-2.5-2.6-6.3-3.4c-3.8-0.8-5.1-1.6-4.9-2.1
		c0.2-0.6,2.1-2.6,10.2-1S60,22,60,22s5.4,4.8,4,14.4c-1.3,9.6-4,11.8-4.8,11.8s-0.9-2.1-0.6-6.7s-1.4-8.2-1.3-9.3
		c0.1-1.1,1.6-5.3,0.5-7C57.6,24.7,57.4,24.2,57,23.8z"/>
	<path class="st0" d="M50.7,53.6c0,0,0.1-0.1,0.9-1.6c0.9-1.4,0.1-4.2-0.5-5.7c-0.7-1.7,1.8-3.1,1.6-7s0-5.3,0.6-5.3
		c0.6,0,3,1.2,3.9,9.5c0.9,8.2-3.7,12.3-3.7,12.3s-3.2,6.5-12.8,8C31,65.3,28.2,63.3,28,62.7c-0.2-0.6,1.8-1.6,6.3-2.5
		c4.6-0.9,7.5-3.7,8.5-3.9s5.5,0,6.8-1.4C50.7,53.7,50.7,53.6,50.7,53.6z"/>
	<path class="st0" d="M20.2,56.6c0,0,0.1,0,1.8,0.4s3.9-1.3,5.1-2.4c1.3-1.2,3.5,0.6,7.1-0.9c3.7-1.6,5-1.8,5.2-1.1
		c0.2,0.6-0.2,3.3-7.7,6.9c-7.5,3.6-12.8,0.6-12.8,0.6s-7.1-0.9-11.8-9.5S3.4,38.7,3.9,38.1s2.1,1.1,4.4,5.1s6.1,5.7,6.6,6.6
		c0.5,0.9,1.9,5.3,3.7,6C19.2,56.2,19.7,56.5,20.2,56.6z"/>
</g>
</svg>
