<?xml version="1.0" encoding="utf-8"?>
<!-- Generator: Adobe Illustrator 24.1.1, SVG Export Plug-In . SVG Version: 6.00 Build 0)  -->
<svg version="1.1" id="Layer_3" xmlns="http://www.w3.org/2000/svg" xmlns:xlink="http://www.w3.org/1999/xlink" x="0px" y="0px"
	 viewBox="0 0 78.4 56" style="enable-background:new 0 0 78.4 56;" xml:space="preserve">
<style type="text/css">
	.st0{fill:#FFFFFF;}
</style>
<path class="st0" d="M72.2,10.8L67,11.2l-0.2-5.9c0,0,0-1.8-4.8-1.5c-4.8,0.3-12.2,2.5-22.8,10.1c-10.6-7.6-18-9.8-22.9-10.1
	s-4.8,1.5-4.8,1.5l-0.2,5.9l-5.1-0.4L5.3,46c0,0,27.8,1.9,29.3,3.7c0.7,1,1.7,1.7,2.9,2.2l1.7,0.3l1.7-0.3c1.1-0.5,2.1-1.2,2.9-2.2
	c1.5-1.7,29.3-3.7,29.3-3.7L72.2,10.8z M8.1,44.1l1-31.5h2.1l-1.1,27.7c0,0,13-0.1,17.5,3.1C27.6,43.3,16.5,42.9,8.1,44.1z
	 M37.1,45.3c0,0-6.2-4.6-11.4-6.4s-12.2-1.4-12.2-1.4l1-30.5c0,0,4-1.1,12.8,2.6s9.8,6.5,9.8,6.5V45.3z M41.3,45.3V16.1
	c0,0,1-2.8,9.8-6.5S63.8,7,63.8,7l1,30.5c0,0-7-0.4-12.2,1.3C47.5,40.6,41.3,45.3,41.3,45.3z M50.8,43.4c4.5-3.2,17.5-3.1,17.5-3.1
	l-1-27.7h2.1l1,31.5C61.8,42.9,50.8,43.3,50.8,43.4L50.8,43.4z"/>
<path class="st0" d="M34.6,18.1c-2.2-2.5-5-4.3-8.1-5.4c-2.6-0.8-5.2-1.3-7.9-1.4c0,0-1.1,0-1.4,0.4c-0.5,0.9,0.6,1.1,0.6,1.1
	c2.7,0.1,5.4,0.6,7.9,1.4c3.1,1.1,5.9,2.9,8.1,5.4c0,0,1.1,0.9,1.1,0.1C35,19.2,34.9,18.7,34.6,18.1z"/>
<path class="st0" d="M34.6,24.3c-2.2-2.5-5-4.3-8.1-5.4c-2.6-0.8-5.2-1.3-7.9-1.4c0,0-1.1,0-1.4,0.4c-0.5,0.9,0.6,1.1,0.6,1.1
	c2.7,0.1,5.4,0.6,7.9,1.4c3.1,1.1,5.9,2.9,8.1,5.4c0,0,1.1,0.9,1.1,0.1C35,25.4,34.9,24.8,34.6,24.3z"/>
<path class="st0" d="M34.2,30.4c-2.2-2.5-5-4.3-8.2-5.4c-2.6-0.8-5.2-1.3-7.9-1.4c0,0-1.1,0-1.4,0.4c-0.6,0.9,0.6,1.1,0.6,1.1
	c2.7,0.1,5.4,0.6,7.9,1.4c3.1,1.1,5.9,2.9,8.1,5.4c0,0,1.1,0.9,1.1,0.1C34.6,31.5,34.4,30.9,34.2,30.4z"/>
<path class="st0" d="M34.2,37.2c-2.2-2.5-5-4.3-8.2-5.4c-2.6-0.8-5.2-1.3-7.9-1.4c0,0-1.1,0-1.4,0.4c-0.6,0.9,0.6,1.1,0.6,1.1
	c2.7,0.1,5.4,0.6,7.9,1.4c3.1,1.1,5.9,2.9,8.1,5.4c0,0,1.1,0.9,1.1,0.1C34.6,38.3,34.4,37.7,34.2,37.2z"/>
<path class="st0" d="M44,18.1c2.2-2.5,5-4.3,8.2-5.4c2.6-0.8,5.2-1.3,7.9-1.4c0,0,1.1,0,1.4,0.4c0.6,0.9-0.6,1.1-0.6,1.1
	c-2.7,0.1-5.4,0.6-7.9,1.4c-3.1,1.1-5.9,2.9-8.1,5.4c0,0-1.1,0.9-1.1,0.1C43.6,19.2,43.8,18.7,44,18.1z"/>
<path class="st0" d="M44,24.3c2.2-2.5,5-4.3,8.2-5.4c2.6-0.8,5.2-1.3,7.9-1.4c0,0,1.1,0,1.4,0.4c0.6,0.9-0.6,1.1-0.6,1.1
	c-2.7,0.1-5.4,0.6-7.9,1.4c-3.1,1.1-5.9,2.9-8.1,5.4c0,0-1.1,0.9-1.1,0.1C43.6,25.4,43.8,24.8,44,24.3z"/>
<path class="st0" d="M44.4,30.4c2.2-2.5,5-4.3,8.1-5.4c2.6-0.8,5.2-1.3,7.9-1.4c0,0,1.1,0,1.4,0.4c0.5,0.9-0.6,1.1-0.6,1.1
	c-2.7,0.1-5.4,0.6-7.9,1.4c-3.1,1.1-5.9,2.9-8.1,5.4c0,0-1.1,0.9-1.1,0.1C44,31.5,44.1,30.9,44.4,30.4z"/>
<path class="st0" d="M44.4,37.2c2.2-2.5,5-4.3,8.1-5.4c2.6-0.8,5.2-1.3,7.9-1.4c0,0,1.1,0,1.4,0.4c0.5,0.9-0.6,1.1-0.6,1.1
	c-2.7,0.1-5.4,0.6-7.9,1.4c-3.1,1.1-5.9,2.9-8.1,5.4c0,0-1.1,0.9-1.1,0.1C44,38.3,44.1,37.7,44.4,37.2z"/>
</svg>
