<?xml version="1.0" encoding="utf-8"?>
<!-- Generator: Adobe Illustrator 24.1.1, SVG Export Plug-In . SVG Version: 6.00 Build 0)  -->
<svg version="1.1" id="Layer_4" xmlns="http://www.w3.org/2000/svg" xmlns:xlink="http://www.w3.org/1999/xlink" x="0px" y="0px"
	 viewBox="0 0 60 100" style="enable-background:new 0 0 60 100;" xml:space="preserve">
<style type="text/css">
	.st0{fill:#FFFFFF;}
</style>
<path class="st0" d="M61.7,15.4l-1,5.3L59.6,21c-2.1-1.2-4.2-2.3-6.5-2.9c-2.2-0.7-4.4-1-6.6-1c-2.8-0.1-5.6,0.5-8.1,2
	c-2.3,1.1-4,2.9-5.4,5.1c-1.1,2-1.7,4-1.7,6.2s0.7,4.2,2,6c1.3,1.7,3,3.1,5,4.2c2.6,1.6,5.2,2.9,7.9,4.1c3.3,1.6,6.4,3.3,9.4,5.2
	c2.5,1.5,4.6,3.5,6.2,5.9c1.7,2.6,2.6,5.6,2.5,8.7c0,3.4-1,6.7-2.8,9.5c-2,3-4.8,5.5-8,6.9c-3.6,1.8-7.6,2.7-11.5,2.7
	c-3.1,0-6.2-0.4-9.2-1.3c-3-0.8-6-2.1-8.6-3.7l0.7-5.9l0.8-0.3c2.4,2.2,5.2,3.7,8.1,4.9c2.8,1,5.7,1.6,8.7,1.6
	c2.9,0.1,5.9-0.7,8.5-2.1c2.3-1.2,4.2-3,5.6-5.2c1.3-2.1,2.1-4.2,2.1-6.6c0.1-2.3-0.7-4.6-2.1-6.4c-1.3-1.8-3-3.3-5-4.4
	c-2.6-1.6-5.3-3-8.1-4.2c-3.1-1.6-6.3-3.3-9.2-5.1c-2.4-1.5-4.4-3.4-6-5.7c-1.7-2.5-2.5-5.5-2.5-8.5c0-3.3,0.9-6.5,2.7-9.3
	c2-2.9,4.6-5.2,7.7-6.6c3.5-1.7,7.4-2.6,11.2-2.5C52.1,12.1,57,13.2,61.7,15.4z"/>
<path class="st0" d="M44,73.7c3.9-4.9,6.5-10.7,7.6-16.9c-0.4-0.3-0.9-0.5-1.3-0.9c-1.1-0.7-2.5-1.3-4-2.3
	c-0.4,6.1-2.7,11.9-6.4,16.8c-1.6,2-3.5,3.5-5.6,4.9c2.2,0.8,4.4,1.2,6.6,1.3C41.9,75.7,42.9,74.9,44,73.7z"/>
<path class="st0" d="M40,24.3c3.7,4.2,5.9,10.4,6.4,18.2l0.3,0.1c2.2,1,4,2.1,5.6,2.9v-0.2c0-10.7-2.7-19-8-24.8
	c-0.4-0.4-0.9-0.9-1.3-1.3c-1.3,0.2-2.6,0.7-3.8,1.3c-0.7,0.3-1.2,0.8-1.8,1.2C38.5,22.7,39.2,23.5,40,24.3z"/>
<path class="st0" d="M22.6,80.3l-1.1-0.7l0.1-1h-1.4c-2.1,0-4.7,0-7.8-0.2c-3.1-0.2-1.7-0.3-4.9-0.4L7.5,61.3l0.3-43.8
	c2.9-0.1,1.5-0.2,5-0.3c3.5-0.1,6.2-0.1,8.2-0.1c2.5,0,4.9,0.2,7.4,0.8c1.3-1.6,3-2.9,4.9-4c-3.8-1.1-7.8-1.7-11.7-1.6L2,12.5
	l0.3,49.1L2,83c3.5,0.1,2.8,0.2,7,0.3c4.2,0.1,7.7,0.2,10.4,0.2s5.4-0.2,8-0.8C25.9,82.1,24.3,81.4,22.6,80.3z"/>
<path class="st0" d="M34.1,14.7c0,0,14.1-14.6-6.6-28.1C46.5,0.4,34.1,14.7,34.1,14.7z"/>
<path class="st0" d="M35.5,13.5c0,0,13.4-5.4,3.9-20.3C47.8,8,35.5,13.5,35.5,13.5z"/>
<path class="st0" d="M25.9-15.3c0.5-0.3,1.3,0,1.6,0.5l0,0l0,0c0.2,0.5,0,1.3-0.5,1.6l0,0c-0.5,0.2-1.3,0-1.6-0.5
	C24.9-14.3,25.2-15,25.9-15.3L25.9-15.3L25.9-15.3z"/>
<circle class="st0" cx="39" cy="-7.3" r="0.8"/>
<path class="st0" d="M40,2.1c0.4-0.2,1,0,1.2,0.4l0,0c0.1,0.4-0.1,1-0.5,1.1c-0.3,0.1-0.8,0-1-0.3c0,0,0,0,0-0.1
	C39.4,2.8,39.6,2.3,40,2.1z"/>
<circle class="st0" cx="45.4" cy="7.7" r="0.9"/>
<path class="st0" d="M32.9-5.2c0.3,0.3,0.4,1,0,1.3c-0.3,0.3-1,0.4-1.3,0l-0.1-0.1c-0.3-0.3-0.4-1,0-1.3c0.3-0.3,1-0.4,1.3,0
	C32.9-5.4,32.9-5.4,32.9-5.2z"/>
<path class="st0" d="M38.6,8.5c0.3-0.1,0.7,0,0.9,0.3c0.1,0.3,0,0.7-0.3,0.9l0,0c-0.3,0.2-0.7,0.1-0.9-0.2l0,0
	c-0.2-0.3-0.1-0.7,0.2-0.9L38.6,8.5z"/>
<path class="st0" d="M28.4,1.3c-5.9,8,4.9,10.9,4.9,10.9C33.5,9.4,32.5,9,30,5.5C28,2.9,28.2,1.7,28.4,1.3z"/>
<path class="st0" d="M49.1,8.4c0,0,7.5,5,10.1-2.9c-0.7,0.2-1.3,0.4-2.1,0.4C53.8,5.7,50.7,4.7,49.1,8.4z"/>
<path class="st0" d="M33.8,66.6c1.1-0.4,2.4,0,2.9,1.1c0.5,1.1,0,2.4-1.1,2.9c-1.1,0.4-2.4,0-2.9-1.1C32.3,68.4,32.7,67.2,33.8,66.6
	L33.8,66.6z"/>
<path class="st0" d="M38.5,60c0.8-0.4,2-0.2,2.4,0.5s0.2,2-0.5,2.4s-2,0.2-2.4-0.5c-0.1-0.1-0.1-0.2-0.1-0.3
	C37.5,61.3,37.8,60.4,38.5,60z"/>
<path class="st0" d="M40.1,53.9c0.5-0.2,1.1,0,1.3,0.5c0.2,0.5,0,1.1-0.4,1.3l0,0c-0.4,0.2-1.1,0-1.3-0.4l0,0
	C39.4,54.8,39.6,54.2,40.1,53.9z"/>
<path class="st0" d="M54.9,60c-0.7,3.1-0.4,6.3,0.4,9.3c0.7-1.5,1-2.9,1-4.6C56.3,63.3,55.9,61.5,54.9,60z"/>
<path class="st0" d="M72.4,33c-0.9,2.6-2.2,5.1-3.7,7.5c-3,3.5-6.4,6.6-9,10.1c1.2,1.1,2.4,2.5,3.4,3.8c0.4,0.5,0.8,1.1,1.1,1.8
	c1.2-1.6,2.6-3.1,4-4.9c-0.3,0.4-2,2.5-3.7,5.4c1,2.3,1.5,4.9,1.5,7.4v1.3C73.1,60,80.3,49.8,72.4,33z"/>
<path class="st0" d="M-8.3,61c3.4,4,6.2,8.3,8.7,13l0.2-12.4V61c-2.6-3.9-5.9-7.5-8.9-11.2c-1.5-2.5-2.6-5.1-3.5-7.8
	c-11.7,22.4,4.9,34.4,12,38.2v-1.3C-1.5,70.7-7.7,62-8.3,61z"/>
</svg>
