<svg id="Layer_2" data-name="Layer 2" xmlns="http://www.w3.org/2000/svg" viewBox="0 0 33.07 33.07"><defs><style>.cls-1{fill:#fff;}</style></defs><path class="cls-1" d="M998.07,88.62H977.39a6.19,6.19,0,0,0-6.19,6.19v20.68a6.19,6.19,0,0,0,6.19,6.2h20.68a6.2,6.2,0,0,0,6.2-6.2V94.81A6.2,6.2,0,0,0,998.07,88.62Zm3.37,26.56a3.68,3.68,0,0,1-3.68,3.68h-20a3.69,3.69,0,0,1-3.69-3.68V95.13a3.68,3.68,0,0,1,3.69-3.68h20a3.68,3.68,0,0,1,3.68,3.68Z" transform="translate(-971.2 -88.62)"/><polygon class="cls-1" points="4.52 17.34 6.9 14.96 12.92 20.98 26.11 7.79 28.49 10.17 12.92 25.74 4.52 17.34"/></svg>