<?xml version="1.0" encoding="utf-8"?>
<!-- Generator: Adobe Illustrator 24.1.1, SVG Export Plug-In . SVG Version: 6.00 Build 0)  -->
<svg version="1.1" id="Layer_1" xmlns="http://www.w3.org/2000/svg" xmlns:xlink="http://www.w3.org/1999/xlink" x="0px" y="0px"
	 viewBox="0 0 85.1 85" style="enable-background:new 0 0 85.1 85;" xml:space="preserve">
<style type="text/css">
	.st0{fill:#FFFFFF;}
</style>
<path class="st0" d="M42.5,14.3c16.4,0,29.5,13.8,28.4,30.5c-1,14-12.3,25.4-26.4,26.4C28.5,72.2,15,60,14.1,44.4
	c-0.1-1-0.9-1.7-1.8-1.7H9.9c-1.4,0-2.2,0.9-2.1,1.9c1,19.1,17.5,34.1,37.2,32.8c17.2-1.2,31-15.1,32.2-32.2
	C78.6,24.9,62.5,7.9,42.5,7.9V2.6c0-0.9-0.9-1.4-1.7-1L26,9.9c-0.8,0.4-0.8,1.6,0,2l14.8,8.5c0.8,0.4,1.7-0.1,1.7-1V14.3z"/>
</svg>
