<?xml version="1.0" encoding="utf-8"?>
<!-- Generator: Adobe Illustrator 24.1.1, SVG Export Plug-In . SVG Version: 6.00 Build 0)  -->
<svg version="1.1" id="Layer_2_1_" xmlns="http://www.w3.org/2000/svg" xmlns:xlink="http://www.w3.org/1999/xlink" x="0px" y="0px"
	 viewBox="0 0 33.1 33.1" style="enable-background:new 0 0 33.1 33.1;" xml:space="preserve">
<style type="text/css">
	.st0{fill:#FFFFFF;}
</style>
<path class="st0" d="M26.1,1.3H7C3.9,1.3,1.3,3.9,1.3,7v19.1c0,3.1,2.6,5.7,5.7,5.7l0,0h19.1c3.1,0,5.7-2.6,5.7-5.7V7
	C31.8,3.9,29.2,1.3,26.1,1.3z M29.1,25.8c0,1.8-1.5,3.4-3.4,3.4H7.3c-1.8,0-3.4-1.5-3.4-3.4V7.4C3.9,5.5,5.3,4,7.3,4l0,0h18.4
	c1.8,0,3.4,1.5,3.4,3.4V25.8z"/>
<path class="st0" d="M9,25.6c-0.5,0-0.6-0.2-0.7-0.3c-0.1-0.1-0.1-0.2-0.1-0.3c-0.3-0.7-0.1-1.4,0.5-1.9l5.6-4.9
	c0.4-0.4,0.6-0.9,0.4-1.4v0c-0.1-0.3-0.2-0.5-0.4-0.7L7.6,9.6c-0.3-0.4-0.2-1.1,0-1.4c0-0.1,0.1-0.1,0.3-0.1c0.5,0,0.9,0.1,1.2,0.2
	c0.4,0.1,0.8,0.3,1.1,0.6l2.4,2.5c0,0,3.6,4.3,4.2,4.3c0.8,0,6.6-6.6,6.6-6.6c0.6-0.7,0.9-0.6,1.2-0.6c0.3,0,0.7,0,0.9,0.3
	c0.2,0.3,0,1.1-0.6,1.7l-5.4,5.6c-0.4,0.4-0.6,1.1-0.4,1.6v0c0.1,0.3,0.3,0.6,0.6,0.8l5.4,4.3c0.3,0.2,0.5,0.6,0.6,0.9
	c0.1,0.5,0.2,1,0,1.4c-0.1,0.2-0.5,0.3-0.9,0.3c0,0,0,0,0,0l0,0c-0.8,0-1.5-0.3-2-0.9l-4.5-4.5c-0.3-0.3-0.7-0.5-1.1-0.5l0,0
	c-0.4,0-0.8,0.2-1.1,0.5l-4.1,4.2c-0.6,0.6-1.4,1.1-2.2,1.3C9.4,25.6,9.2,25.6,9,25.6z"/>
</svg>
