<?xml version="1.0" encoding="utf-8"?>
<!-- Generator: Adobe Illustrator 24.1.1, SVG Export Plug-In . SVG Version: 6.00 Build 0)  -->
<svg version="1.1" id="Layer_2_1_" xmlns="http://www.w3.org/2000/svg" xmlns:xlink="http://www.w3.org/1999/xlink" x="0px" y="0px"
	 viewBox="0 0 33.4 33.4" style="enable-background:new 0 0 33.4 33.4;" xml:space="preserve">
<style type="text/css">
	.st0{fill:#FFFFFF;}
</style>
<g>
	<path class="st0" d="M13.3,23.3l-6.3-5.1C4.1,32.9,15.9,33,15.9,33S12.8,28.9,13.3,23.3z"/>
	<path class="st0" d="M27.2,9.2c0,0-0.2,7.2-8,10.2c-9,3.5-1.9,14.1-1.5,14C17.8,33.4,36.7,30.6,27.2,9.2z M18.3,29.8
		c4.6-2.9,7.7-10.7,8-12.2C26.3,28.1,18.5,29.9,18.3,29.8z"/>
	<path class="st0" d="M13.9,21.5c0.9-1.6,2.5-2.9,4.7-3.7c2.6-1,4.3-2.6,5.2-4.1c-1.6-1.7-3.9-2.7-6.4-2.7c-4.1,0-7.5,2.8-8.5,6.5
		L13.9,21.5z"/>
	<path class="st0" d="M23.5,5.5c-1.5,1.7-2.6,4.1-2.6,4.1l1.3,0.6C22.9,8.1,23.5,5.5,23.5,5.5z"/>
	<path class="st0" d="M17.9,0c0,0-1.1,6.6-1.3,8.8l1.7,0C18.3,8.9,18.3,2.7,17.9,0z"/>
	<path class="st0" d="M14.2,9.1c-1.1-1.9-2.8-4-2.8-4C11.8,7.4,13,9.7,13,9.7L14.2,9.1z"/>
	<path class="st0" d="M11,11.3C9.3,9.8,3.7,5.5,3.7,5.5c1.1,2.2,6,7.1,6,7.1L11,11.3z"/>
	<path class="st0" d="M8,14.9c-1.9-0.8-4.8-1.8-4.8-1.8c1.4,1.5,4.3,3.1,4.3,3.1L8,14.9z"/>
</g>
</svg>
